<mxfile host="Electron" agent="Mozilla/5.0 (Windows NT 10.0; Win64; x64) AppleWebKit/537.36 (KHTML, like Gecko) draw.io/24.7.17 Chrome/128.0.6613.36 Electron/32.0.1 Safari/537.36" version="24.7.17" pages="2">
  <diagram name="AF1 v1.0 REVA" id="X3fQY1zsOr8cW4xb4W7M">
    <mxGraphModel dx="1839" dy="1220" grid="1" gridSize="10" guides="1" tooltips="1" connect="1" arrows="1" fold="1" page="1" pageScale="1" pageWidth="2336" pageHeight="1654" background="#FFFFFF" math="0" shadow="0">
      <root>
        <mxCell id="0" />
        <mxCell id="1" parent="0" />
        <mxCell id="TCwqkFAJ2CJT01Bx5YSx-300" style="edgeStyle=orthogonalEdgeStyle;rounded=0;orthogonalLoop=1;jettySize=auto;html=1;exitX=1;exitY=0.5;exitDx=0;exitDy=0;entryX=0.007;entryY=0.448;entryDx=0;entryDy=0;dashed=1;entryPerimeter=0;" edge="1" parent="1" source="TCwqkFAJ2CJT01Bx5YSx-3" target="TCwqkFAJ2CJT01Bx5YSx-309">
          <mxGeometry relative="1" as="geometry">
            <mxPoint x="774.9999999999995" y="510" as="targetPoint" />
          </mxGeometry>
        </mxCell>
        <mxCell id="TCwqkFAJ2CJT01Bx5YSx-304" value="VAlim" style="edgeLabel;html=1;align=center;verticalAlign=middle;resizable=0;points=[];" vertex="1" connectable="0" parent="TCwqkFAJ2CJT01Bx5YSx-300">
          <mxGeometry x="-0.1357" y="3" relative="1" as="geometry">
            <mxPoint as="offset" />
          </mxGeometry>
        </mxCell>
        <mxCell id="TCwqkFAJ2CJT01Bx5YSx-3" value="Alimentations" style="rounded=0;whiteSpace=wrap;html=1;fillColor=#f8cecc;strokeColor=#b85450;glass=1;" vertex="1" parent="1">
          <mxGeometry x="450" y="460" width="230" height="100" as="geometry" />
        </mxCell>
        <mxCell id="TCwqkFAJ2CJT01Bx5YSx-298" style="edgeStyle=orthogonalEdgeStyle;rounded=0;orthogonalLoop=1;jettySize=auto;html=1;exitX=1;exitY=0.5;exitDx=0;exitDy=0;entryX=0;entryY=0.5;entryDx=0;entryDy=0;dashed=1;" edge="1" parent="1" target="TCwqkFAJ2CJT01Bx5YSx-3">
          <mxGeometry relative="1" as="geometry">
            <mxPoint x="340" y="510" as="sourcePoint" />
          </mxGeometry>
        </mxCell>
        <mxCell id="TCwqkFAJ2CJT01Bx5YSx-302" value="VHT" style="edgeLabel;html=1;align=center;verticalAlign=middle;resizable=0;points=[];" vertex="1" connectable="0" parent="TCwqkFAJ2CJT01Bx5YSx-298">
          <mxGeometry x="0.2428" y="1" relative="1" as="geometry">
            <mxPoint as="offset" />
          </mxGeometry>
        </mxCell>
        <mxCell id="TCwqkFAJ2CJT01Bx5YSx-299" style="edgeStyle=orthogonalEdgeStyle;rounded=0;orthogonalLoop=1;jettySize=auto;html=1;exitX=1;exitY=0.75;exitDx=0;exitDy=0;entryX=0;entryY=0.75;entryDx=0;entryDy=0;dashed=1;" edge="1" parent="1" target="TCwqkFAJ2CJT01Bx5YSx-3">
          <mxGeometry relative="1" as="geometry">
            <mxPoint x="340" y="535" as="sourcePoint" />
          </mxGeometry>
        </mxCell>
        <mxCell id="TCwqkFAJ2CJT01Bx5YSx-303" value="VUSB-C" style="edgeLabel;html=1;align=center;verticalAlign=middle;resizable=0;points=[];" vertex="1" connectable="0" parent="TCwqkFAJ2CJT01Bx5YSx-299">
          <mxGeometry x="0.2214" y="3" relative="1" as="geometry">
            <mxPoint as="offset" />
          </mxGeometry>
        </mxCell>
        <mxCell id="TCwqkFAJ2CJT01Bx5YSx-296" value="" style="endArrow=classic;html=1;rounded=0;entryX=0;entryY=0.25;entryDx=0;entryDy=0;exitX=1;exitY=0.25;exitDx=0;exitDy=0;strokeColor=#000000;dashed=1;" edge="1" parent="1" target="TCwqkFAJ2CJT01Bx5YSx-3">
          <mxGeometry width="50" height="50" relative="1" as="geometry">
            <mxPoint x="340" y="485" as="sourcePoint" />
            <mxPoint x="810" y="570" as="targetPoint" />
          </mxGeometry>
        </mxCell>
        <mxCell id="TCwqkFAJ2CJT01Bx5YSx-301" value="VBT" style="edgeLabel;html=1;align=center;verticalAlign=middle;resizable=0;points=[];" vertex="1" connectable="0" parent="TCwqkFAJ2CJT01Bx5YSx-296">
          <mxGeometry x="0.2856" y="3" relative="1" as="geometry">
            <mxPoint as="offset" />
          </mxGeometry>
        </mxCell>
        <mxCell id="TCwqkFAJ2CJT01Bx5YSx-315" style="edgeStyle=orthogonalEdgeStyle;rounded=0;orthogonalLoop=1;jettySize=auto;html=1;exitX=0.5;exitY=1;exitDx=0;exitDy=0;entryX=0.5;entryY=0;entryDx=0;entryDy=0;strokeColor=#FF3333;" edge="1" parent="1" source="TCwqkFAJ2CJT01Bx5YSx-306" target="TCwqkFAJ2CJT01Bx5YSx-309">
          <mxGeometry relative="1" as="geometry" />
        </mxCell>
        <mxCell id="TCwqkFAJ2CJT01Bx5YSx-316" value="&lt;font style=&quot;font-size: 14px;&quot;&gt;S&lt;/font&gt;&lt;font size=&quot;1&quot; style=&quot;&quot;&gt;RESET&lt;/font&gt;" style="edgeLabel;html=1;align=center;verticalAlign=middle;resizable=0;points=[];" vertex="1" connectable="0" parent="TCwqkFAJ2CJT01Bx5YSx-315">
          <mxGeometry x="-0.0993" y="2" relative="1" as="geometry">
            <mxPoint as="offset" />
          </mxGeometry>
        </mxCell>
        <mxCell id="TCwqkFAJ2CJT01Bx5YSx-306" value="Interface Homme-Machine" style="rounded=0;whiteSpace=wrap;html=1;fillColor=#ffe6cc;strokeColor=#d79b00;shadow=0;glass=1;" vertex="1" parent="1">
          <mxGeometry x="770" y="170" width="320" height="100" as="geometry" />
        </mxCell>
        <mxCell id="TCwqkFAJ2CJT01Bx5YSx-312" style="edgeStyle=orthogonalEdgeStyle;rounded=0;orthogonalLoop=1;jettySize=auto;html=1;exitX=0.75;exitY=0;exitDx=0;exitDy=0;strokeColor=#FF3333;" edge="1" parent="1" source="TCwqkFAJ2CJT01Bx5YSx-309">
          <mxGeometry relative="1" as="geometry">
            <mxPoint x="1005.5294117647059" y="270" as="targetPoint" />
          </mxGeometry>
        </mxCell>
        <mxCell id="TCwqkFAJ2CJT01Bx5YSx-314" value="&lt;font style=&quot;font-size: 16px;&quot;&gt;S&lt;/font&gt;&lt;font size=&quot;1&quot; style=&quot;&quot;&gt;LED&lt;/font&gt;" style="edgeLabel;html=1;align=center;verticalAlign=middle;resizable=0;points=[];" vertex="1" connectable="0" parent="TCwqkFAJ2CJT01Bx5YSx-312">
          <mxGeometry x="0.1386" y="3" relative="1" as="geometry">
            <mxPoint as="offset" />
          </mxGeometry>
        </mxCell>
        <mxCell id="TCwqkFAJ2CJT01Bx5YSx-318" style="edgeStyle=orthogonalEdgeStyle;rounded=0;orthogonalLoop=1;jettySize=auto;html=1;exitX=0.25;exitY=0;exitDx=0;exitDy=0;strokeColor=#FF3333;" edge="1" parent="1" source="TCwqkFAJ2CJT01Bx5YSx-309">
          <mxGeometry relative="1" as="geometry">
            <mxPoint x="855" y="270" as="targetPoint" />
            <Array as="points">
              <mxPoint x="855" y="360" />
              <mxPoint x="856" y="270" />
            </Array>
          </mxGeometry>
        </mxCell>
        <mxCell id="TCwqkFAJ2CJT01Bx5YSx-319" value="&lt;font style=&quot;font-size: 16px;&quot;&gt;S&lt;/font&gt;BUZZER" style="edgeLabel;html=1;align=center;verticalAlign=middle;resizable=0;points=[];" vertex="1" connectable="0" parent="TCwqkFAJ2CJT01Bx5YSx-318">
          <mxGeometry x="0.1181" y="4" relative="1" as="geometry">
            <mxPoint as="offset" />
          </mxGeometry>
        </mxCell>
        <mxCell id="TCwqkFAJ2CJT01Bx5YSx-309" value="UNITÃ‰ DE TRAITEMENT&lt;div&gt;&lt;br&gt;&lt;/div&gt;&lt;div&gt;ESP32-S3&lt;/div&gt;" style="rounded=0;whiteSpace=wrap;html=1;glass=1;" vertex="1" parent="1">
          <mxGeometry x="780" y="450" width="300" height="130" as="geometry" />
        </mxCell>
        <mxCell id="TCwqkFAJ2CJT01Bx5YSx-320" value="Communication&lt;div&gt;&lt;br&gt;&lt;/div&gt;&lt;div&gt;Bluetooth/Antenne&lt;/div&gt;" style="rounded=0;whiteSpace=wrap;html=1;fillColor=#dae8fc;strokeColor=#6c8ebf;glass=1;" vertex="1" parent="1">
          <mxGeometry x="1190" y="170" width="260" height="100" as="geometry" />
        </mxCell>
        <mxCell id="TCwqkFAJ2CJT01Bx5YSx-321" value="" style="endArrow=classic;startArrow=classic;html=1;rounded=0;exitX=0.917;exitY=-0.008;exitDx=0;exitDy=0;exitPerimeter=0;entryX=0.25;entryY=1;entryDx=0;entryDy=0;strokeColor=#FF3333;" edge="1" parent="1" source="TCwqkFAJ2CJT01Bx5YSx-309" target="TCwqkFAJ2CJT01Bx5YSx-320">
          <mxGeometry width="50" height="50" relative="1" as="geometry">
            <mxPoint x="760" y="610" as="sourcePoint" />
            <mxPoint x="810" y="560" as="targetPoint" />
            <Array as="points">
              <mxPoint x="1055" y="320" />
              <mxPoint x="1255" y="320" />
            </Array>
          </mxGeometry>
        </mxCell>
        <mxCell id="TCwqkFAJ2CJT01Bx5YSx-322" value="&lt;font style=&quot;font-size: 16px;&quot;&gt;S&lt;/font&gt;&lt;font style=&quot;font-size: 10px;&quot;&gt;BLE&lt;/font&gt;" style="edgeLabel;html=1;align=center;verticalAlign=middle;resizable=0;points=[];" vertex="1" connectable="0" parent="TCwqkFAJ2CJT01Bx5YSx-321">
          <mxGeometry x="-0.0875" relative="1" as="geometry">
            <mxPoint as="offset" />
          </mxGeometry>
        </mxCell>
        <mxCell id="TCwqkFAJ2CJT01Bx5YSx-327" value="Protocole&lt;div&gt;&lt;br&gt;&lt;/div&gt;&lt;div&gt;I2C&lt;/div&gt;" style="rounded=0;whiteSpace=wrap;html=1;fillColor=#d5e8d4;strokeColor=#82b366;glass=1;" vertex="1" parent="1">
          <mxGeometry x="1360" y="380" width="80" height="260" as="geometry" />
        </mxCell>
        <mxCell id="TCwqkFAJ2CJT01Bx5YSx-329" value="" style="endArrow=classic;startArrow=classic;html=1;rounded=0;entryX=1;entryY=0.25;entryDx=0;entryDy=0;strokeColor=#FF3333;exitX=0.417;exitY=1;exitDx=0;exitDy=0;exitPerimeter=0;" edge="1" parent="1" source="TCwqkFAJ2CJT01Bx5YSx-363" target="TCwqkFAJ2CJT01Bx5YSx-327">
          <mxGeometry width="50" height="50" relative="1" as="geometry">
            <mxPoint x="800" y="770" as="sourcePoint" />
            <mxPoint x="810" y="560" as="targetPoint" />
            <Array as="points">
              <mxPoint x="800" y="800" />
              <mxPoint x="1680" y="800" />
              <mxPoint x="1680" y="445" />
              <mxPoint x="1560" y="445" />
              <mxPoint x="1510" y="445" />
            </Array>
          </mxGeometry>
        </mxCell>
        <mxCell id="TCwqkFAJ2CJT01Bx5YSx-333" value="&lt;font style=&quot;font-size: 16px;&quot;&gt;S&lt;/font&gt;INA" style="edgeLabel;html=1;align=center;verticalAlign=middle;resizable=0;points=[];" vertex="1" connectable="0" parent="TCwqkFAJ2CJT01Bx5YSx-329">
          <mxGeometry x="0.0232" y="3" relative="1" as="geometry">
            <mxPoint as="offset" />
          </mxGeometry>
        </mxCell>
        <mxCell id="TCwqkFAJ2CJT01Bx5YSx-330" value="" style="endArrow=classic;startArrow=classic;html=1;rounded=0;entryX=1;entryY=0.5;entryDx=0;entryDy=0;strokeColor=#FF3333;" edge="1" parent="1" target="TCwqkFAJ2CJT01Bx5YSx-327">
          <mxGeometry width="50" height="50" relative="1" as="geometry">
            <mxPoint x="1630" y="480" as="sourcePoint" />
            <mxPoint x="810" y="560" as="targetPoint" />
            <Array as="points">
              <mxPoint x="1520" y="480" />
              <mxPoint x="1520" y="510" />
            </Array>
          </mxGeometry>
        </mxCell>
        <mxCell id="TCwqkFAJ2CJT01Bx5YSx-336" value="SGR1" style="edgeLabel;html=1;align=center;verticalAlign=middle;resizable=0;points=[];" vertex="1" connectable="0" parent="TCwqkFAJ2CJT01Bx5YSx-330">
          <mxGeometry x="-0.7896" y="3" relative="1" as="geometry">
            <mxPoint x="-26" as="offset" />
          </mxGeometry>
        </mxCell>
        <mxCell id="TCwqkFAJ2CJT01Bx5YSx-331" value="" style="endArrow=classic;html=1;rounded=0;strokeColor=#FF3333;" edge="1" parent="1">
          <mxGeometry width="50" height="50" relative="1" as="geometry">
            <mxPoint x="1520" y="510" as="sourcePoint" />
            <mxPoint x="1630" y="540" as="targetPoint" />
            <Array as="points">
              <mxPoint x="1520" y="540" />
            </Array>
          </mxGeometry>
        </mxCell>
        <mxCell id="TCwqkFAJ2CJT01Bx5YSx-337" value="SGR2" style="edgeLabel;html=1;align=center;verticalAlign=middle;resizable=0;points=[];" vertex="1" connectable="0" parent="TCwqkFAJ2CJT01Bx5YSx-331">
          <mxGeometry x="0.2193" y="-2" relative="1" as="geometry">
            <mxPoint x="-6" y="-2" as="offset" />
          </mxGeometry>
        </mxCell>
        <mxCell id="TCwqkFAJ2CJT01Bx5YSx-332" value="" style="endArrow=classic;startArrow=classic;html=1;rounded=0;strokeColor=#FF3333;entryX=1;entryY=0.75;entryDx=0;entryDy=0;" edge="1" parent="1" target="TCwqkFAJ2CJT01Bx5YSx-327">
          <mxGeometry width="50" height="50" relative="1" as="geometry">
            <mxPoint x="1590" y="575" as="sourcePoint" />
            <mxPoint x="1210" y="690" as="targetPoint" />
            <Array as="points">
              <mxPoint x="1550" y="575" />
            </Array>
          </mxGeometry>
        </mxCell>
        <mxCell id="TCwqkFAJ2CJT01Bx5YSx-338" value="&lt;font style=&quot;font-size: 16px;&quot;&gt;S&lt;/font&gt;&lt;font style=&quot;font-size: 10px;&quot;&gt;MIKROBUS&lt;/font&gt;" style="edgeLabel;html=1;align=center;verticalAlign=middle;resizable=0;points=[];" vertex="1" connectable="0" parent="TCwqkFAJ2CJT01Bx5YSx-332">
          <mxGeometry x="-0.5736" y="2" relative="1" as="geometry">
            <mxPoint x="-48" y="3" as="offset" />
          </mxGeometry>
        </mxCell>
        <mxCell id="TCwqkFAJ2CJT01Bx5YSx-340" value="Protocole&lt;div&gt;&lt;br&gt;&lt;/div&gt;&lt;div&gt;SPI&lt;/div&gt;" style="rounded=0;whiteSpace=wrap;html=1;fillColor=#d5e8d4;strokeColor=#82b366;glass=1;" vertex="1" parent="1">
          <mxGeometry x="960" y="696.5" width="140" height="87" as="geometry" />
        </mxCell>
        <mxCell id="TCwqkFAJ2CJT01Bx5YSx-341" value="" style="endArrow=classic;startArrow=classic;html=1;rounded=0;strokeColor=#FF3333;entryX=1;entryY=0.5;entryDx=0;entryDy=0;exitX=0;exitY=0.25;exitDx=0;exitDy=0;" edge="1" parent="1" source="TCwqkFAJ2CJT01Bx5YSx-340" target="TCwqkFAJ2CJT01Bx5YSx-363">
          <mxGeometry width="50" height="50" relative="1" as="geometry">
            <mxPoint x="1000" y="578" as="sourcePoint" />
            <mxPoint x="1000" y="700" as="targetPoint" />
            <Array as="points" />
          </mxGeometry>
        </mxCell>
        <mxCell id="TCwqkFAJ2CJT01Bx5YSx-345" value="&lt;font style=&quot;font-size: 16px;&quot;&gt;S&lt;/font&gt;&lt;font style=&quot;font-size: 10px;&quot;&gt;CPT/T&lt;/font&gt;Â°" style="edgeLabel;html=1;align=center;verticalAlign=middle;resizable=0;points=[];" vertex="1" connectable="0" parent="TCwqkFAJ2CJT01Bx5YSx-341">
          <mxGeometry x="0.0241" y="2" relative="1" as="geometry">
            <mxPoint as="offset" />
          </mxGeometry>
        </mxCell>
        <mxCell id="TCwqkFAJ2CJT01Bx5YSx-343" value="" style="endArrow=classic;html=1;rounded=0;entryX=1;entryY=0.25;entryDx=0;entryDy=0;strokeColor=#FF3333;" edge="1" parent="1" target="TCwqkFAJ2CJT01Bx5YSx-340">
          <mxGeometry width="50" height="50" relative="1" as="geometry">
            <mxPoint x="1462.5" y="574.5" as="sourcePoint" />
            <mxPoint x="1337.4999999999995" y="721" as="targetPoint" />
            <Array as="points">
              <mxPoint x="1462.5" y="664.5" />
              <mxPoint x="1462" y="718" />
            </Array>
          </mxGeometry>
        </mxCell>
        <mxCell id="TCwqkFAJ2CJT01Bx5YSx-347" style="edgeStyle=orthogonalEdgeStyle;rounded=0;orthogonalLoop=1;jettySize=auto;html=1;entryX=0.75;entryY=1;entryDx=0;entryDy=0;dashed=1;" edge="1" parent="1" target="TCwqkFAJ2CJT01Bx5YSx-378">
          <mxGeometry relative="1" as="geometry">
            <mxPoint x="350" y="600" as="sourcePoint" />
            <mxPoint x="182.5" y="560" as="targetPoint" />
          </mxGeometry>
        </mxCell>
        <mxCell id="TCwqkFAJ2CJT01Bx5YSx-348" value="&lt;font style=&quot;font-size: 15px;&quot;&gt;V&lt;/font&gt;&lt;font style=&quot;font-size: 10px;&quot;&gt;ESD&lt;/font&gt;" style="edgeLabel;html=1;align=center;verticalAlign=middle;resizable=0;points=[];" vertex="1" connectable="0" parent="TCwqkFAJ2CJT01Bx5YSx-347">
          <mxGeometry x="-0.0555" y="1" relative="1" as="geometry">
            <mxPoint as="offset" />
          </mxGeometry>
        </mxCell>
        <mxCell id="TCwqkFAJ2CJT01Bx5YSx-355" style="edgeStyle=orthogonalEdgeStyle;rounded=0;orthogonalLoop=1;jettySize=auto;html=1;entryX=0;entryY=0.75;entryDx=0;entryDy=0;strokeColor=#FF3333;exitX=0.315;exitY=1.019;exitDx=0;exitDy=0;exitPerimeter=0;" edge="1" parent="1" source="TCwqkFAJ2CJT01Bx5YSx-3" target="TCwqkFAJ2CJT01Bx5YSx-309">
          <mxGeometry relative="1" as="geometry">
            <mxPoint x="520" y="650" as="sourcePoint" />
            <Array as="points">
              <mxPoint x="522" y="660" />
              <mxPoint x="575" y="660" />
              <mxPoint x="575" y="590" />
              <mxPoint x="740" y="590" />
              <mxPoint x="740" y="548" />
            </Array>
          </mxGeometry>
        </mxCell>
        <mxCell id="TCwqkFAJ2CJT01Bx5YSx-362" value="&lt;font style=&quot;font-size: 16px;&quot;&gt;S&lt;/font&gt;&lt;font style=&quot;font-size: 10px;&quot;&gt;REPROG&lt;/font&gt;" style="edgeLabel;html=1;align=center;verticalAlign=middle;resizable=0;points=[];" vertex="1" connectable="0" parent="TCwqkFAJ2CJT01Bx5YSx-355">
          <mxGeometry x="-0.5334" y="4" relative="1" as="geometry">
            <mxPoint as="offset" />
          </mxGeometry>
        </mxCell>
        <mxCell id="TCwqkFAJ2CJT01Bx5YSx-364" style="edgeStyle=orthogonalEdgeStyle;rounded=0;orthogonalLoop=1;jettySize=auto;html=1;exitX=0.5;exitY=0;exitDx=0;exitDy=0;entryX=0.25;entryY=1;entryDx=0;entryDy=0;strokeColor=#000000;dashed=1;" edge="1" parent="1" source="TCwqkFAJ2CJT01Bx5YSx-363" target="TCwqkFAJ2CJT01Bx5YSx-309">
          <mxGeometry relative="1" as="geometry">
            <Array as="points">
              <mxPoint x="810" y="630" />
              <mxPoint x="855" y="630" />
            </Array>
          </mxGeometry>
        </mxCell>
        <mxCell id="TCwqkFAJ2CJT01Bx5YSx-365" value="&lt;font style=&quot;font-size: 17px;&quot;&gt;V&lt;/font&gt;&lt;font style=&quot;font-size: 11px;&quot;&gt;THERMISTANCE&lt;/font&gt;" style="edgeLabel;html=1;align=center;verticalAlign=middle;resizable=0;points=[];" vertex="1" connectable="0" parent="TCwqkFAJ2CJT01Bx5YSx-364">
          <mxGeometry x="0.0244" y="-1" relative="1" as="geometry">
            <mxPoint as="offset" />
          </mxGeometry>
        </mxCell>
        <mxCell id="TCwqkFAJ2CJT01Bx5YSx-363" value="MESURES" style="rounded=0;whiteSpace=wrap;html=1;fillColor=#fff2cc;strokeColor=#d6b656;glass=1;" vertex="1" parent="1">
          <mxGeometry x="750" y="680" width="120" height="70" as="geometry" />
        </mxCell>
        <mxCell id="TCwqkFAJ2CJT01Bx5YSx-371" value="FP1" style="rounded=0;whiteSpace=wrap;html=1;" vertex="1" parent="1">
          <mxGeometry x="780" y="550" width="50" height="30" as="geometry" />
        </mxCell>
        <mxCell id="TCwqkFAJ2CJT01Bx5YSx-374" value="FP3" style="rounded=0;whiteSpace=wrap;html=1;fillColor=#ffe6cc;strokeColor=#d79b00;" vertex="1" parent="1">
          <mxGeometry x="770" y="240" width="50" height="30" as="geometry" />
        </mxCell>
        <mxCell id="TCwqkFAJ2CJT01Bx5YSx-375" value="FP5" style="rounded=0;whiteSpace=wrap;html=1;fillColor=#d5e8d4;strokeColor=#82b366;" vertex="1" parent="1">
          <mxGeometry x="1360" y="380" width="50" height="30" as="geometry" />
        </mxCell>
        <mxCell id="TCwqkFAJ2CJT01Bx5YSx-376" value="FP6" style="rounded=0;whiteSpace=wrap;html=1;fillColor=#d5e8d4;strokeColor=#82b366;" vertex="1" parent="1">
          <mxGeometry x="960" y="753" width="50" height="30" as="geometry" />
        </mxCell>
        <mxCell id="TCwqkFAJ2CJT01Bx5YSx-377" value="FP7" style="rounded=0;whiteSpace=wrap;html=1;fillColor=#fff2cc;strokeColor=#d6b656;" vertex="1" parent="1">
          <mxGeometry x="750" y="720" width="40" height="30" as="geometry" />
        </mxCell>
        <mxCell id="TCwqkFAJ2CJT01Bx5YSx-378" value="FP2" style="rounded=0;whiteSpace=wrap;html=1;fillColor=#f8cecc;strokeColor=#b85450;" vertex="1" parent="1">
          <mxGeometry x="450" y="530" width="50" height="30" as="geometry" />
        </mxCell>
        <mxCell id="TCwqkFAJ2CJT01Bx5YSx-379" value="FP4" style="rounded=0;whiteSpace=wrap;html=1;fillColor=#dae8fc;strokeColor=#6c8ebf;" vertex="1" parent="1">
          <mxGeometry x="1190" y="240" width="50" height="30" as="geometry" />
        </mxCell>
        <mxCell id="TCwqkFAJ2CJT01Bx5YSx-388" value="" style="endArrow=classic;html=1;rounded=0;exitX=0.385;exitY=1.02;exitDx=0;exitDy=0;exitPerimeter=0;entryX=0.378;entryY=-0.001;entryDx=0;entryDy=0;entryPerimeter=0;strokeColor=#FF3333;" edge="1" parent="1" source="TCwqkFAJ2CJT01Bx5YSx-306" target="TCwqkFAJ2CJT01Bx5YSx-309">
          <mxGeometry width="50" height="50" relative="1" as="geometry">
            <mxPoint x="760" y="590" as="sourcePoint" />
            <mxPoint x="810" y="540" as="targetPoint" />
          </mxGeometry>
        </mxCell>
        <mxCell id="TCwqkFAJ2CJT01Bx5YSx-390" value="&lt;font style=&quot;font-size: 17px;&quot;&gt;S&lt;/font&gt;BOOT" style="edgeLabel;html=1;align=center;verticalAlign=middle;resizable=0;points=[];" vertex="1" connectable="0" parent="TCwqkFAJ2CJT01Bx5YSx-388">
          <mxGeometry x="0.4102" y="1" relative="1" as="geometry">
            <mxPoint as="offset" />
          </mxGeometry>
        </mxCell>
        <mxCell id="Ng-FIkoqykLM8qBbvaUk-2" value="" style="endArrow=classic;startArrow=classic;html=1;rounded=0;exitX=0.917;exitY=-0.008;exitDx=0;exitDy=0;exitPerimeter=0;strokeColor=#FF3333;" edge="1" parent="1">
          <mxGeometry width="50" height="50" relative="1" as="geometry">
            <mxPoint x="1320" y="170" as="sourcePoint" />
            <mxPoint x="1320" y="30" as="targetPoint" />
            <Array as="points">
              <mxPoint x="1320" y="41" />
            </Array>
          </mxGeometry>
        </mxCell>
        <mxCell id="Ng-FIkoqykLM8qBbvaUk-3" value="&lt;font style=&quot;font-size: 16px;&quot;&gt;S&lt;/font&gt;&lt;font style=&quot;font-size: 10px;&quot;&gt;ANTENNE&lt;/font&gt;" style="edgeLabel;html=1;align=center;verticalAlign=middle;resizable=0;points=[];" vertex="1" connectable="0" parent="Ng-FIkoqykLM8qBbvaUk-2">
          <mxGeometry x="-0.0875" relative="1" as="geometry">
            <mxPoint as="offset" />
          </mxGeometry>
        </mxCell>
        <mxCell id="Ng-FIkoqykLM8qBbvaUk-6" value="" style="endArrow=classic;startArrow=classic;html=1;rounded=0;exitX=0.5;exitY=0;exitDx=0;exitDy=0;entryX=0.75;entryY=1;entryDx=0;entryDy=0;strokeColor=#FF3333;" edge="1" parent="1" source="TCwqkFAJ2CJT01Bx5YSx-340" target="TCwqkFAJ2CJT01Bx5YSx-309">
          <mxGeometry width="50" height="50" relative="1" as="geometry">
            <mxPoint x="760" y="470" as="sourcePoint" />
            <mxPoint x="810" y="420" as="targetPoint" />
            <Array as="points">
              <mxPoint x="1030" y="600" />
              <mxPoint x="1005" y="600" />
            </Array>
          </mxGeometry>
        </mxCell>
        <mxCell id="Ng-FIkoqykLM8qBbvaUk-8" value="&lt;font style=&quot;font-size: 16px;&quot;&gt;S&lt;/font&gt;SPI" style="edgeLabel;html=1;align=center;verticalAlign=middle;resizable=0;points=[];" vertex="1" connectable="0" parent="Ng-FIkoqykLM8qBbvaUk-6">
          <mxGeometry x="0.0513" y="-1" relative="1" as="geometry">
            <mxPoint as="offset" />
          </mxGeometry>
        </mxCell>
        <mxCell id="Ng-FIkoqykLM8qBbvaUk-7" value="" style="endArrow=classic;startArrow=classic;html=1;rounded=0;exitX=0;exitY=0.5;exitDx=0;exitDy=0;entryX=1;entryY=0.5;entryDx=0;entryDy=0;strokeColor=#FF3333;" edge="1" parent="1" source="TCwqkFAJ2CJT01Bx5YSx-327" target="TCwqkFAJ2CJT01Bx5YSx-309">
          <mxGeometry width="50" height="50" relative="1" as="geometry">
            <mxPoint x="1040" y="707" as="sourcePoint" />
            <mxPoint x="1015" y="590" as="targetPoint" />
            <Array as="points">
              <mxPoint x="1320" y="510" />
              <mxPoint x="1320" y="480" />
              <mxPoint x="1130" y="480" />
              <mxPoint x="1130" y="515" />
            </Array>
          </mxGeometry>
        </mxCell>
        <mxCell id="Ng-FIkoqykLM8qBbvaUk-9" value="&lt;font style=&quot;font-size: 16px;&quot;&gt;S&lt;/font&gt;I2C" style="edgeLabel;html=1;align=center;verticalAlign=middle;resizable=0;points=[];" vertex="1" connectable="0" parent="Ng-FIkoqykLM8qBbvaUk-7">
          <mxGeometry x="0.0121" relative="1" as="geometry">
            <mxPoint as="offset" />
          </mxGeometry>
        </mxCell>
        <mxCell id="Xa7uUKW_JC9z2w6pw69J-1" value="LÃ‰GENDE&amp;nbsp; :" style="text;html=1;align=center;verticalAlign=middle;whiteSpace=wrap;rounded=0;" vertex="1" parent="1">
          <mxGeometry x="1840" y="590" width="90" height="30" as="geometry" />
        </mxCell>
        <mxCell id="Xa7uUKW_JC9z2w6pw69J-5" value="" style="endArrow=classic;html=1;rounded=0;strokeColor=#FF3333;" edge="1" parent="1">
          <mxGeometry width="50" height="50" relative="1" as="geometry">
            <mxPoint x="1860" y="640" as="sourcePoint" />
            <mxPoint x="1940" y="640" as="targetPoint" />
          </mxGeometry>
        </mxCell>
        <mxCell id="Xa7uUKW_JC9z2w6pw69J-6" value="S" style="edgeLabel;html=1;align=center;verticalAlign=middle;resizable=0;points=[];" vertex="1" connectable="0" parent="Xa7uUKW_JC9z2w6pw69J-5">
          <mxGeometry x="-0.0794" relative="1" as="geometry">
            <mxPoint as="offset" />
          </mxGeometry>
        </mxCell>
        <mxCell id="Xa7uUKW_JC9z2w6pw69J-10" value="" style="endArrow=classic;html=1;rounded=0;dashed=1;" edge="1" parent="1">
          <mxGeometry width="50" height="50" relative="1" as="geometry">
            <mxPoint x="1860" y="670" as="sourcePoint" />
            <mxPoint x="1940" y="670" as="targetPoint" />
          </mxGeometry>
        </mxCell>
        <mxCell id="Xa7uUKW_JC9z2w6pw69J-11" value="V" style="edgeLabel;html=1;align=center;verticalAlign=middle;resizable=0;points=[];" vertex="1" connectable="0" parent="Xa7uUKW_JC9z2w6pw69J-10">
          <mxGeometry x="-0.05" y="-3" relative="1" as="geometry">
            <mxPoint y="-3" as="offset" />
          </mxGeometry>
        </mxCell>
        <mxCell id="Xa7uUKW_JC9z2w6pw69J-12" value="Signal gÃ©rÃ© en soft" style="text;html=1;align=center;verticalAlign=middle;whiteSpace=wrap;rounded=0;" vertex="1" parent="1">
          <mxGeometry x="1940" y="627" width="110" height="30" as="geometry" />
        </mxCell>
        <mxCell id="Xa7uUKW_JC9z2w6pw69J-13" value="Signal gÃ©rÃ© en hard" style="text;html=1;align=center;verticalAlign=middle;whiteSpace=wrap;rounded=0;" vertex="1" parent="1">
          <mxGeometry x="1940" y="655" width="110" height="30" as="geometry" />
        </mxCell>
        <mxCell id="Xa7uUKW_JC9z2w6pw69J-14" value="" style="rounded=0;whiteSpace=wrap;html=1;fillColor=none;" vertex="1" parent="1">
          <mxGeometry x="1830" y="590" width="240" height="110" as="geometry" />
        </mxCell>
      </root>
    </mxGraphModel>
  </diagram>
  <diagram id="YrFDm8GjacZ_1nGMyGcL" name="AF2 V1.0 REVA">
    <mxGraphModel dx="6802" dy="2963" grid="1" gridSize="10" guides="1" tooltips="1" connect="1" arrows="1" fold="1" page="1" pageScale="1" pageWidth="2336" pageHeight="1654" math="0" shadow="0">
      <root>
        <mxCell id="0" />
        <mxCell id="1" parent="0" />
        <mxCell id="rCXYzEkiWeuKtUZMqGnk-1" value="" style="endArrow=none;html=1;rounded=0;" edge="1" parent="1">
          <mxGeometry width="50" height="50" relative="1" as="geometry">
            <mxPoint x="1160" y="1660" as="sourcePoint" />
            <mxPoint x="1160" as="targetPoint" />
          </mxGeometry>
        </mxCell>
        <mxCell id="rCXYzEkiWeuKtUZMqGnk-2" value="" style="endArrow=none;html=1;rounded=0;" edge="1" parent="1">
          <mxGeometry width="50" height="50" relative="1" as="geometry">
            <mxPoint y="800" as="sourcePoint" />
            <mxPoint x="2330" y="800" as="targetPoint" />
          </mxGeometry>
        </mxCell>
        <mxCell id="rCXYzEkiWeuKtUZMqGnk-3" value="&lt;font style=&quot;font-size: 15px;&quot;&gt;UNITÃ‰ DE TRAITEMENT&lt;/font&gt;&lt;div&gt;&lt;font style=&quot;font-size: 15px;&quot;&gt;&lt;br&gt;&lt;/font&gt;&lt;/div&gt;&lt;div&gt;&lt;span style=&quot;font-size: 15px;&quot;&gt;ESP32-S3&lt;/span&gt;&lt;/div&gt;" style="rounded=0;whiteSpace=wrap;html=1;gradientColor=none;gradientDirection=north;" vertex="1" parent="1">
          <mxGeometry x="400" y="130" width="310" height="480" as="geometry" />
        </mxCell>
        <mxCell id="4zOi82H_9D-6pu0cy0u1-1" value="FP1" style="rounded=0;whiteSpace=wrap;html=1;" vertex="1" parent="1">
          <mxGeometry x="400" y="550" width="120" height="60" as="geometry" />
        </mxCell>
        <mxCell id="9yr0NSuXwpKioR5Y9aC8-1" value="" style="endArrow=classic;html=1;rounded=0;entryX=0;entryY=0.25;entryDx=0;entryDy=0;dashed=1;" edge="1" parent="1">
          <mxGeometry width="50" height="50" relative="1" as="geometry">
            <mxPoint x="240" y="157" as="sourcePoint" />
            <mxPoint x="400" y="157.00000000000023" as="targetPoint" />
          </mxGeometry>
        </mxCell>
        <mxCell id="9yr0NSuXwpKioR5Y9aC8-2" value="&lt;font style=&quot;font-size: 17px;&quot;&gt;V&lt;/font&gt;ALIM" style="edgeLabel;html=1;align=center;verticalAlign=middle;resizable=0;points=[];" vertex="1" connectable="0" parent="9yr0NSuXwpKioR5Y9aC8-1">
          <mxGeometry x="0.0292" y="-1" relative="1" as="geometry">
            <mxPoint x="1" as="offset" />
          </mxGeometry>
        </mxCell>
        <mxCell id="GDPC8ZGw_0KAcvgy7Yg2-3" value="" style="endArrow=classic;startArrow=classic;html=1;rounded=0;exitX=1.001;exitY=0.21;exitDx=0;exitDy=0;exitPerimeter=0;strokeColor=#FF3333;" edge="1" parent="1">
          <mxGeometry width="50" height="50" relative="1" as="geometry">
            <mxPoint x="150" y="250" as="sourcePoint" />
            <mxPoint x="400" y="250" as="targetPoint" />
            <Array as="points" />
          </mxGeometry>
        </mxCell>
        <mxCell id="mEdJZu6cqZfVRWObKcSv-2" value="&lt;font style=&quot;font-size: 15px;&quot;&gt;S&lt;/font&gt;&lt;font style=&quot;font-size: 10px;&quot;&gt;I2C&lt;/font&gt;" style="edgeLabel;html=1;align=center;verticalAlign=middle;resizable=0;points=[];" vertex="1" connectable="0" parent="GDPC8ZGw_0KAcvgy7Yg2-3">
          <mxGeometry x="-0.083" y="-1" relative="1" as="geometry">
            <mxPoint as="offset" />
          </mxGeometry>
        </mxCell>
        <mxCell id="Pel5shQmPmLuLzQ3dU6m-1" value="&lt;font style=&quot;font-size: 10px;&quot;&gt;Vers FP5&lt;/font&gt;" style="text;html=1;align=center;verticalAlign=middle;whiteSpace=wrap;rounded=0;" vertex="1" parent="1">
          <mxGeometry x="90" y="233" width="60" height="30" as="geometry" />
        </mxCell>
        <mxCell id="Pel5shQmPmLuLzQ3dU6m-3" value="&lt;font style=&quot;font-size: 10px;&quot;&gt;Vers FP5&lt;/font&gt;" style="text;html=1;align=center;verticalAlign=middle;whiteSpace=wrap;rounded=0;" vertex="1" parent="1">
          <mxGeometry x="865" y="188.5" width="60" height="30" as="geometry" />
        </mxCell>
        <mxCell id="odUlICAgPtPxGusDDfFH-1" value="" style="endArrow=classic;html=1;rounded=0;exitX=0.005;exitY=0.668;exitDx=0;exitDy=0;exitPerimeter=0;strokeColor=#FF3333;" edge="1" parent="1">
          <mxGeometry width="50" height="50" relative="1" as="geometry">
            <mxPoint x="399.1700000000002" y="536.6399999999999" as="sourcePoint" />
            <mxPoint x="277.62" y="536" as="targetPoint" />
          </mxGeometry>
        </mxCell>
        <mxCell id="odUlICAgPtPxGusDDfFH-5" value="&lt;font style=&quot;font-size: 16px;&quot;&gt;S&lt;/font&gt;&lt;font style=&quot;font-size: 10px;&quot;&gt;BUZZER&lt;/font&gt;" style="edgeLabel;html=1;align=center;verticalAlign=middle;resizable=0;points=[];" vertex="1" connectable="0" parent="odUlICAgPtPxGusDDfFH-1">
          <mxGeometry x="-0.0762" y="1" relative="1" as="geometry">
            <mxPoint as="offset" />
          </mxGeometry>
        </mxCell>
        <mxCell id="odUlICAgPtPxGusDDfFH-2" value="" style="endArrow=classic;html=1;rounded=0;exitX=0.005;exitY=0.668;exitDx=0;exitDy=0;exitPerimeter=0;strokeColor=#FF3333;" edge="1" parent="1">
          <mxGeometry width="50" height="50" relative="1" as="geometry">
            <mxPoint x="399.62" y="517" as="sourcePoint" />
            <mxPoint x="277.62" y="516" as="targetPoint" />
          </mxGeometry>
        </mxCell>
        <mxCell id="UDa-Hr9pEtDYvA_QU0pc-1" value="&lt;font style=&quot;font-size: 16px;&quot;&gt;S&lt;/font&gt;&lt;font style=&quot;font-size: 10px;&quot;&gt;LED&lt;/font&gt;" style="edgeLabel;html=1;align=center;verticalAlign=middle;resizable=0;points=[];" vertex="1" connectable="0" parent="odUlICAgPtPxGusDDfFH-2">
          <mxGeometry x="-0.1051" y="1" relative="1" as="geometry">
            <mxPoint as="offset" />
          </mxGeometry>
        </mxCell>
        <mxCell id="odUlICAgPtPxGusDDfFH-3" value="" style="endArrow=classic;html=1;rounded=0;entryX=-0.002;entryY=0.593;entryDx=0;entryDy=0;entryPerimeter=0;strokeColor=#FF3333;" edge="1" parent="1">
          <mxGeometry width="50" height="50" relative="1" as="geometry">
            <mxPoint x="280.62" y="497" as="sourcePoint" />
            <mxPoint x="400.0000000000001" y="496.6400000000001" as="targetPoint" />
          </mxGeometry>
        </mxCell>
        <mxCell id="UDa-Hr9pEtDYvA_QU0pc-2" value="&lt;font style=&quot;font-size: 16px;&quot;&gt;S&lt;/font&gt;&lt;font style=&quot;font-size: 10px;&quot;&gt;BOOT&lt;/font&gt;" style="edgeLabel;html=1;align=center;verticalAlign=middle;resizable=0;points=[];" vertex="1" connectable="0" parent="odUlICAgPtPxGusDDfFH-3">
          <mxGeometry x="0.0119" relative="1" as="geometry">
            <mxPoint as="offset" />
          </mxGeometry>
        </mxCell>
        <mxCell id="odUlICAgPtPxGusDDfFH-4" value="" style="endArrow=classic;html=1;rounded=0;entryX=-0.002;entryY=0.593;entryDx=0;entryDy=0;entryPerimeter=0;strokeColor=#FF3333;" edge="1" parent="1">
          <mxGeometry width="50" height="50" relative="1" as="geometry">
            <mxPoint x="280.62" y="476.36" as="sourcePoint" />
            <mxPoint x="400.0000000000001" y="476.0000000000001" as="targetPoint" />
          </mxGeometry>
        </mxCell>
        <mxCell id="UDa-Hr9pEtDYvA_QU0pc-3" value="&lt;font style=&quot;font-size: 16px;&quot;&gt;S&lt;/font&gt;&lt;font style=&quot;font-size: 10px;&quot;&gt;RESET&lt;/font&gt;" style="edgeLabel;html=1;align=center;verticalAlign=middle;resizable=0;points=[];" vertex="1" connectable="0" parent="odUlICAgPtPxGusDDfFH-4">
          <mxGeometry x="0.0008" y="1" relative="1" as="geometry">
            <mxPoint as="offset" />
          </mxGeometry>
        </mxCell>
        <mxCell id="PBIN07jX60sCzzyvnvXB-1" value="&lt;font style=&quot;font-size: 10px;&quot;&gt;Vers FP3&lt;/font&gt;" style="text;html=1;align=center;verticalAlign=middle;whiteSpace=wrap;rounded=0;" vertex="1" parent="1">
          <mxGeometry x="217.62" y="500" width="60" height="30" as="geometry" />
        </mxCell>
        <mxCell id="PBIN07jX60sCzzyvnvXB-2" value="&lt;font style=&quot;font-size: 10px;&quot;&gt;Vers FP3&lt;/font&gt;" style="text;html=1;align=center;verticalAlign=middle;whiteSpace=wrap;rounded=0;" vertex="1" parent="1">
          <mxGeometry x="217.62" y="521" width="60" height="30" as="geometry" />
        </mxCell>
        <mxCell id="PBIN07jX60sCzzyvnvXB-3" value="&lt;font style=&quot;font-size: 10px;&quot;&gt;Viens de FP3&lt;/font&gt;" style="text;html=1;align=center;verticalAlign=middle;whiteSpace=wrap;rounded=0;" vertex="1" parent="1">
          <mxGeometry x="207.62" y="460" width="80" height="30" as="geometry" />
        </mxCell>
        <mxCell id="PBIN07jX60sCzzyvnvXB-4" value="&lt;font style=&quot;font-size: 10px;&quot;&gt;Viens de FP3&lt;/font&gt;" style="text;html=1;align=center;verticalAlign=middle;whiteSpace=wrap;rounded=0;" vertex="1" parent="1">
          <mxGeometry x="208.62" y="480" width="80" height="30" as="geometry" />
        </mxCell>
        <mxCell id="PBIN07jX60sCzzyvnvXB-5" value="&lt;font style=&quot;font-size: 10px;&quot;&gt;Viens de FP2&lt;/font&gt;" style="text;html=1;align=center;verticalAlign=middle;whiteSpace=wrap;rounded=0;" vertex="1" parent="1">
          <mxGeometry x="159" y="140" width="80" height="30" as="geometry" />
        </mxCell>
        <mxCell id="YqOnWvR6nouON5F3Dv8k-1" value="&lt;font style=&quot;font-size: 10px;&quot;&gt;Vers FP4&lt;/font&gt;" style="text;html=1;align=center;verticalAlign=middle;whiteSpace=wrap;rounded=0;" vertex="1" parent="1">
          <mxGeometry x="910" y="380" width="60" height="30" as="geometry" />
        </mxCell>
        <mxCell id="SIpGmPUs-K8d-U8OIpLH-1" value="" style="endArrow=classic;html=1;rounded=0;entryX=1.007;entryY=0.563;entryDx=0;entryDy=0;entryPerimeter=0;strokeColor=#FF3333;" edge="1" parent="1">
          <mxGeometry width="50" height="50" relative="1" as="geometry">
            <mxPoint x="937.83" y="296" as="sourcePoint" />
            <mxPoint x="710.0000000000001" y="296.2399999999998" as="targetPoint" />
            <Array as="points">
              <mxPoint x="887.83" y="296" />
            </Array>
          </mxGeometry>
        </mxCell>
        <mxCell id="SIpGmPUs-K8d-U8OIpLH-3" value="&lt;font style=&quot;font-size: 16px;&quot;&gt;S&lt;/font&gt;&lt;font style=&quot;font-size: 10px;&quot;&gt;THERMISTANCE&lt;/font&gt;" style="edgeLabel;html=1;align=center;verticalAlign=middle;resizable=0;points=[];" vertex="1" connectable="0" parent="SIpGmPUs-K8d-U8OIpLH-1">
          <mxGeometry x="0.0956" y="1" relative="1" as="geometry">
            <mxPoint as="offset" />
          </mxGeometry>
        </mxCell>
        <mxCell id="SIpGmPUs-K8d-U8OIpLH-6" value="" style="endArrow=classic;html=1;rounded=0;strokeColor=#FF3333;" edge="1" parent="1">
          <mxGeometry width="50" height="50" relative="1" as="geometry">
            <mxPoint x="937.83" y="296" as="sourcePoint" />
            <mxPoint x="957.83" y="296" as="targetPoint" />
            <Array as="points" />
          </mxGeometry>
        </mxCell>
        <mxCell id="SIpGmPUs-K8d-U8OIpLH-7" value="&lt;font style=&quot;font-size: 10px;&quot;&gt;Vers FP7&lt;/font&gt;" style="text;html=1;align=center;verticalAlign=middle;whiteSpace=wrap;rounded=0;" vertex="1" parent="1">
          <mxGeometry x="957.83" y="280" width="60" height="30" as="geometry" />
        </mxCell>
        <mxCell id="iJ6Mkq3qaODiJyUZqLCY-1" value="&lt;font style=&quot;font-size: 10px;&quot;&gt;Viens de FP2&lt;/font&gt;" style="text;html=1;align=center;verticalAlign=middle;whiteSpace=wrap;rounded=0;" vertex="1" parent="1">
          <mxGeometry x="830" y="546" width="80" height="30" as="geometry" />
        </mxCell>
        <mxCell id="03IXZqj_naqLW8QQAtYu-1" value="&lt;font style=&quot;font-size: 16px;&quot;&gt;FP1 - UnitÃ© de traitement&lt;/font&gt;" style="text;html=1;align=left;verticalAlign=middle;whiteSpace=wrap;rounded=0;" vertex="1" parent="1">
          <mxGeometry width="500" height="30" as="geometry" />
        </mxCell>
        <mxCell id="P7Oh05MW6o98ZR_pqmLb-1" value="&lt;font style=&quot;font-size: 16px;&quot;&gt;FP3 - Interface Homme-Machine&lt;/font&gt;" style="text;html=1;align=left;verticalAlign=middle;whiteSpace=wrap;rounded=0;" vertex="1" parent="1">
          <mxGeometry y="797" width="500" height="30" as="geometry" />
        </mxCell>
        <mxCell id="kFWMkLkRTwCg40ML7I6V-1" value="LED&lt;div&gt;Utilisateur&lt;/div&gt;" style="rounded=0;whiteSpace=wrap;html=1;" vertex="1" parent="1">
          <mxGeometry x="230" y="900" width="161" height="140" as="geometry" />
        </mxCell>
        <mxCell id="kFWMkLkRTwCg40ML7I6V-2" value="BUZZER" style="rounded=0;whiteSpace=wrap;html=1;" vertex="1" parent="1">
          <mxGeometry x="230" y="1120" width="161" height="140" as="geometry" />
        </mxCell>
        <mxCell id="kFWMkLkRTwCg40ML7I6V-3" value="Bouton&lt;div&gt;BOOT&lt;/div&gt;" style="rounded=0;whiteSpace=wrap;html=1;" vertex="1" parent="1">
          <mxGeometry x="743.5" y="900" width="161" height="140" as="geometry" />
        </mxCell>
        <mxCell id="kFWMkLkRTwCg40ML7I6V-4" value="Bouton&lt;div&gt;RESET&lt;/div&gt;" style="rounded=0;whiteSpace=wrap;html=1;" vertex="1" parent="1">
          <mxGeometry x="743.5" y="1120" width="161" height="140" as="geometry" />
        </mxCell>
        <mxCell id="kFWMkLkRTwCg40ML7I6V-6" value="" style="endArrow=classic;html=1;rounded=0;entryX=1;entryY=0.25;entryDx=0;entryDy=0;strokeColor=#FF3333;" edge="1" parent="1">
          <mxGeometry width="50" height="50" relative="1" as="geometry">
            <mxPoint x="490" y="969.23" as="sourcePoint" />
            <mxPoint x="391" y="969.23" as="targetPoint" />
            <Array as="points" />
          </mxGeometry>
        </mxCell>
        <mxCell id="kFWMkLkRTwCg40ML7I6V-11" value="&lt;font style=&quot;font-size: 16px;&quot;&gt;S&lt;/font&gt;&lt;font style=&quot;font-size: 10px;&quot;&gt;LED&lt;/font&gt;" style="edgeLabel;html=1;align=center;verticalAlign=middle;resizable=0;points=[];" vertex="1" connectable="0" parent="kFWMkLkRTwCg40ML7I6V-6">
          <mxGeometry x="0.021" relative="1" as="geometry">
            <mxPoint x="4" y="1" as="offset" />
          </mxGeometry>
        </mxCell>
        <mxCell id="fN638vaNAiypB7q3fUQp-4" value="&lt;font style=&quot;font-size: 10px;&quot;&gt;Viens de FP1&lt;/font&gt;" style="text;html=1;align=center;verticalAlign=middle;whiteSpace=wrap;rounded=0;" vertex="1" parent="1">
          <mxGeometry x="490" y="955" width="80" height="30" as="geometry" />
        </mxCell>
        <mxCell id="fN638vaNAiypB7q3fUQp-6" value="" style="endArrow=classic;html=1;rounded=0;entryX=1;entryY=0.25;entryDx=0;entryDy=0;strokeColor=#FF3333;" edge="1" parent="1">
          <mxGeometry width="50" height="50" relative="1" as="geometry">
            <mxPoint x="490" y="1189.57" as="sourcePoint" />
            <mxPoint x="391" y="1189.57" as="targetPoint" />
            <Array as="points" />
          </mxGeometry>
        </mxCell>
        <mxCell id="fN638vaNAiypB7q3fUQp-7" value="&lt;font style=&quot;font-size: 16px;&quot;&gt;S&lt;/font&gt;&lt;font style=&quot;font-size: 10px;&quot;&gt;BUZZER&lt;/font&gt;" style="edgeLabel;html=1;align=center;verticalAlign=middle;resizable=0;points=[];" vertex="1" connectable="0" parent="fN638vaNAiypB7q3fUQp-6">
          <mxGeometry x="0.021" relative="1" as="geometry">
            <mxPoint x="4" y="1" as="offset" />
          </mxGeometry>
        </mxCell>
        <mxCell id="fN638vaNAiypB7q3fUQp-9" value="&lt;font style=&quot;font-size: 10px;&quot;&gt;Viens de FP1&lt;/font&gt;" style="text;html=1;align=center;verticalAlign=middle;whiteSpace=wrap;rounded=0;" vertex="1" parent="1">
          <mxGeometry x="490" y="1175" width="80" height="30" as="geometry" />
        </mxCell>
        <mxCell id="fN638vaNAiypB7q3fUQp-10" value="" style="endArrow=classic;html=1;rounded=0;exitX=1;exitY=0.5;exitDx=0;exitDy=0;strokeColor=#FF3333;" edge="1" parent="1" source="kFWMkLkRTwCg40ML7I6V-3">
          <mxGeometry width="50" height="50" relative="1" as="geometry">
            <mxPoint x="440" y="970" as="sourcePoint" />
            <mxPoint x="1010" y="970" as="targetPoint" />
          </mxGeometry>
        </mxCell>
        <mxCell id="fN638vaNAiypB7q3fUQp-12" value="&lt;font style=&quot;font-size: 16px;&quot;&gt;S&lt;/font&gt;&lt;font style=&quot;font-size: 10px;&quot;&gt;BOOT&lt;/font&gt;" style="edgeLabel;html=1;align=center;verticalAlign=middle;resizable=0;points=[];" vertex="1" connectable="0" parent="fN638vaNAiypB7q3fUQp-10">
          <mxGeometry x="-0.0847" y="-1" relative="1" as="geometry">
            <mxPoint as="offset" />
          </mxGeometry>
        </mxCell>
        <mxCell id="fN638vaNAiypB7q3fUQp-11" value="" style="endArrow=classic;html=1;rounded=0;exitX=1;exitY=0.5;exitDx=0;exitDy=0;strokeColor=#FF3333;" edge="1" parent="1">
          <mxGeometry width="50" height="50" relative="1" as="geometry">
            <mxPoint x="904.5" y="1189.57" as="sourcePoint" />
            <mxPoint x="1009.5" y="1189.57" as="targetPoint" />
          </mxGeometry>
        </mxCell>
        <mxCell id="fN638vaNAiypB7q3fUQp-13" value="&lt;font style=&quot;font-size: 16px;&quot;&gt;S&lt;/font&gt;&lt;font style=&quot;font-size: 10px;&quot;&gt;RESET&lt;/font&gt;" style="edgeLabel;html=1;align=center;verticalAlign=middle;resizable=0;points=[];" vertex="1" connectable="0" parent="fN638vaNAiypB7q3fUQp-11">
          <mxGeometry x="-0.13" y="-1" relative="1" as="geometry">
            <mxPoint as="offset" />
          </mxGeometry>
        </mxCell>
        <mxCell id="fN638vaNAiypB7q3fUQp-14" value="&lt;font style=&quot;font-size: 10px;&quot;&gt;Vers FP1&lt;/font&gt;" style="text;html=1;align=center;verticalAlign=middle;whiteSpace=wrap;rounded=0;" vertex="1" parent="1">
          <mxGeometry x="1010" y="955" width="60" height="30" as="geometry" />
        </mxCell>
        <mxCell id="fN638vaNAiypB7q3fUQp-15" value="&lt;font style=&quot;font-size: 10px;&quot;&gt;Vers FP1&lt;/font&gt;" style="text;html=1;align=center;verticalAlign=middle;whiteSpace=wrap;rounded=0;" vertex="1" parent="1">
          <mxGeometry x="1010" y="1175" width="60" height="30" as="geometry" />
        </mxCell>
        <mxCell id="MJ5LZN7G1vLk4p-Qcu7i-1" value="&lt;font style=&quot;font-size: 16px;&quot;&gt;FP4 - Communication sans-fil&lt;/font&gt;" style="text;html=1;align=left;verticalAlign=middle;whiteSpace=wrap;rounded=0;" vertex="1" parent="1">
          <mxGeometry x="1160" y="797" width="500" height="30" as="geometry" />
        </mxCell>
        <mxCell id="MJ5LZN7G1vLk4p-Qcu7i-2" value="Communication Bluetooth" style="rounded=0;whiteSpace=wrap;html=1;" vertex="1" parent="1">
          <mxGeometry x="1640" y="1175" width="330" height="140" as="geometry" />
        </mxCell>
        <mxCell id="MJ5LZN7G1vLk4p-Qcu7i-3" value="Antenne Bluetooth" style="rounded=0;whiteSpace=wrap;html=1;" vertex="1" parent="1">
          <mxGeometry x="1640" y="890" width="330" height="140" as="geometry" />
        </mxCell>
        <mxCell id="MJ5LZN7G1vLk4p-Qcu7i-4" value="" style="endArrow=classic;startArrow=classic;html=1;rounded=0;exitX=0.5;exitY=0;exitDx=0;exitDy=0;entryX=0.5;entryY=1;entryDx=0;entryDy=0;strokeColor=#FF3333;" edge="1" parent="1" source="MJ5LZN7G1vLk4p-Qcu7i-2" target="MJ5LZN7G1vLk4p-Qcu7i-3">
          <mxGeometry width="50" height="50" relative="1" as="geometry">
            <mxPoint x="1500" y="1070" as="sourcePoint" />
            <mxPoint x="1550" y="1020" as="targetPoint" />
          </mxGeometry>
        </mxCell>
        <mxCell id="MJ5LZN7G1vLk4p-Qcu7i-5" value="&lt;font style=&quot;font-size: 16px;&quot;&gt;S&lt;/font&gt;&lt;font style=&quot;font-size: 10px;&quot;&gt;ANTENNE&lt;/font&gt;" style="edgeLabel;html=1;align=center;verticalAlign=middle;resizable=0;points=[];" vertex="1" connectable="0" parent="MJ5LZN7G1vLk4p-Qcu7i-4">
          <mxGeometry x="0.1414" y="-2" relative="1" as="geometry">
            <mxPoint as="offset" />
          </mxGeometry>
        </mxCell>
        <mxCell id="W70qC0myLN0l3HJ0LMHq-1" value="&lt;font style=&quot;font-size: 10px;&quot;&gt;Vers FP1&lt;/font&gt;" style="text;html=1;align=center;verticalAlign=middle;whiteSpace=wrap;rounded=0;" vertex="1" parent="1">
          <mxGeometry x="1770" y="1420" width="60" height="30" as="geometry" />
        </mxCell>
        <mxCell id="oqR7BpkA8iU7V_4cDujR-1" value="&lt;font style=&quot;font-size: 16px;&quot;&gt;FP2 - Alimentation&lt;/font&gt;" style="text;html=1;align=left;verticalAlign=middle;whiteSpace=wrap;rounded=0;" vertex="1" parent="1">
          <mxGeometry x="1160" width="500" height="30" as="geometry" />
        </mxCell>
        <mxCell id="h7MtyjZ-VembmERZ8xKg-1" value="" style="endArrow=none;html=1;rounded=0;" edge="1" parent="1">
          <mxGeometry width="50" height="50" relative="1" as="geometry">
            <mxPoint x="1160" y="3310" as="sourcePoint" />
            <mxPoint x="1160" y="1660" as="targetPoint" />
          </mxGeometry>
        </mxCell>
        <mxCell id="h7MtyjZ-VembmERZ8xKg-2" value="" style="endArrow=none;html=1;rounded=0;" edge="1" parent="1">
          <mxGeometry width="50" height="50" relative="1" as="geometry">
            <mxPoint x="-2" y="2480" as="sourcePoint" />
            <mxPoint x="2338" y="2480" as="targetPoint" />
          </mxGeometry>
        </mxCell>
        <mxCell id="9HXGwuxbimEl4QIXXqQk-1" value="&lt;font style=&quot;font-size: 16px;&quot;&gt;FP5 - Protocole I2C&lt;/font&gt;" style="text;html=1;align=left;verticalAlign=middle;whiteSpace=wrap;rounded=0;" vertex="1" parent="1">
          <mxGeometry y="1654" width="500" height="30" as="geometry" />
        </mxCell>
        <mxCell id="9HXGwuxbimEl4QIXXqQk-2" value="&lt;font style=&quot;font-size: 16px;&quot;&gt;FP6 - Protocole SPI&lt;/font&gt;" style="text;html=1;align=left;verticalAlign=middle;whiteSpace=wrap;rounded=0;" vertex="1" parent="1">
          <mxGeometry x="1160" y="1654" width="500" height="30" as="geometry" />
        </mxCell>
        <mxCell id="9HXGwuxbimEl4QIXXqQk-3" value="&lt;font style=&quot;font-size: 16px;&quot;&gt;FP7 - Mesures&lt;/font&gt;" style="text;html=1;align=left;verticalAlign=middle;whiteSpace=wrap;rounded=0;" vertex="1" parent="1">
          <mxGeometry y="2481" width="500" height="30" as="geometry" />
        </mxCell>
        <mxCell id="9HXGwuxbimEl4QIXXqQk-4" value="MESURES" style="rounded=0;whiteSpace=wrap;html=1;" vertex="1" parent="1">
          <mxGeometry x="391" y="2830" width="380" height="140" as="geometry" />
        </mxCell>
        <mxCell id="9HXGwuxbimEl4QIXXqQk-5" value="CTN" style="rounded=0;whiteSpace=wrap;html=1;" vertex="1" parent="1">
          <mxGeometry x="360" y="2590" width="130" height="90" as="geometry" />
        </mxCell>
        <mxCell id="9HXGwuxbimEl4QIXXqQk-6" value="INA" style="rounded=0;whiteSpace=wrap;html=1;" vertex="1" parent="1">
          <mxGeometry x="530" y="2590" width="130" height="90" as="geometry" />
        </mxCell>
        <mxCell id="9HXGwuxbimEl4QIXXqQk-7" value="CPT TEMPERATURE" style="rounded=0;whiteSpace=wrap;html=1;" vertex="1" parent="1">
          <mxGeometry x="700" y="2590" width="130" height="90" as="geometry" />
        </mxCell>
        <mxCell id="9HXGwuxbimEl4QIXXqQk-8" value="" style="endArrow=classic;html=1;rounded=0;exitX=0.5;exitY=1;exitDx=0;exitDy=0;dashed=1;" edge="1" parent="1" source="9HXGwuxbimEl4QIXXqQk-5">
          <mxGeometry width="50" height="50" relative="1" as="geometry">
            <mxPoint x="840" y="2590" as="sourcePoint" />
            <mxPoint x="430" y="2830" as="targetPoint" />
            <Array as="points">
              <mxPoint x="425" y="2720" />
              <mxPoint x="425" y="2760" />
              <mxPoint x="430" y="2760" />
            </Array>
          </mxGeometry>
        </mxCell>
        <mxCell id="zJ5ssoGyWrx72Gv-Tixn-1" value="&lt;font style=&quot;font-size: 16px;&quot;&gt;V&lt;/font&gt;&lt;font style=&quot;font-size: 10px;&quot;&gt;CTN&lt;/font&gt;" style="edgeLabel;html=1;align=center;verticalAlign=middle;resizable=0;points=[];" vertex="1" connectable="0" parent="9HXGwuxbimEl4QIXXqQk-8">
          <mxGeometry x="-0.1234" y="1" relative="1" as="geometry">
            <mxPoint as="offset" />
          </mxGeometry>
        </mxCell>
        <mxCell id="9HXGwuxbimEl4QIXXqQk-10" value="Traitement info CTN" style="rounded=0;whiteSpace=wrap;html=1;" vertex="1" parent="1">
          <mxGeometry x="400" y="3090" width="120" height="60" as="geometry" />
        </mxCell>
        <mxCell id="9HXGwuxbimEl4QIXXqQk-11" value="" style="endArrow=classic;html=1;rounded=0;entryX=0.25;entryY=0;entryDx=0;entryDy=0;exitX=0.102;exitY=1.019;exitDx=0;exitDy=0;exitPerimeter=0;dashed=1;" edge="1" parent="1" source="9HXGwuxbimEl4QIXXqQk-4" target="9HXGwuxbimEl4QIXXqQk-10">
          <mxGeometry width="50" height="50" relative="1" as="geometry">
            <mxPoint x="420" y="3030" as="sourcePoint" />
            <mxPoint x="470" y="2980" as="targetPoint" />
          </mxGeometry>
        </mxCell>
        <mxCell id="zJ5ssoGyWrx72Gv-Tixn-2" value="&lt;font style=&quot;font-size: 16px;&quot;&gt;V&lt;/font&gt;&lt;font style=&quot;font-size: 10px;&quot;&gt;CTN&lt;/font&gt;" style="edgeLabel;html=1;align=center;verticalAlign=middle;resizable=0;points=[];" vertex="1" connectable="0" parent="9HXGwuxbimEl4QIXXqQk-11">
          <mxGeometry x="-0.1579" relative="1" as="geometry">
            <mxPoint as="offset" />
          </mxGeometry>
        </mxCell>
        <mxCell id="9HXGwuxbimEl4QIXXqQk-12" value="" style="endArrow=classic;html=1;rounded=0;exitX=0.25;exitY=1;exitDx=0;exitDy=0;dashed=1;" edge="1" parent="1" source="9HXGwuxbimEl4QIXXqQk-10">
          <mxGeometry width="50" height="50" relative="1" as="geometry">
            <mxPoint x="560" y="3190" as="sourcePoint" />
            <mxPoint x="430" y="3200" as="targetPoint" />
          </mxGeometry>
        </mxCell>
        <mxCell id="zJ5ssoGyWrx72Gv-Tixn-3" value="&lt;font style=&quot;font-size: 16px;&quot;&gt;V&lt;/font&gt;&lt;font style=&quot;font-size: 10px;&quot;&gt;THERMISTANCE&lt;/font&gt;" style="edgeLabel;html=1;align=center;verticalAlign=middle;resizable=0;points=[];" vertex="1" connectable="0" parent="9HXGwuxbimEl4QIXXqQk-12">
          <mxGeometry x="-0.032" y="2" relative="1" as="geometry">
            <mxPoint as="offset" />
          </mxGeometry>
        </mxCell>
        <mxCell id="9HXGwuxbimEl4QIXXqQk-16" value="" style="endArrow=classic;html=1;rounded=0;strokeColor=#FF3333;" edge="1" parent="1">
          <mxGeometry width="50" height="50" relative="1" as="geometry">
            <mxPoint x="580" y="2990" as="sourcePoint" />
            <mxPoint x="580" y="3060" as="targetPoint" />
          </mxGeometry>
        </mxCell>
        <mxCell id="zJ5ssoGyWrx72Gv-Tixn-7" value="&lt;font style=&quot;font-size: 16px;&quot;&gt;S&lt;/font&gt;&lt;font style=&quot;font-size: 10px;&quot;&gt;INA&lt;/font&gt;" style="edgeLabel;html=1;align=center;verticalAlign=middle;resizable=0;points=[];" vertex="1" connectable="0" parent="9HXGwuxbimEl4QIXXqQk-16">
          <mxGeometry x="-0.0566" y="1" relative="1" as="geometry">
            <mxPoint as="offset" />
          </mxGeometry>
        </mxCell>
        <mxCell id="9HXGwuxbimEl4QIXXqQk-17" value="" style="endArrow=classic;html=1;rounded=0;strokeColor=#FF3333;" edge="1" parent="1">
          <mxGeometry width="50" height="50" relative="1" as="geometry">
            <mxPoint x="740" y="2990" as="sourcePoint" />
            <mxPoint x="740" y="3060" as="targetPoint" />
          </mxGeometry>
        </mxCell>
        <mxCell id="zJ5ssoGyWrx72Gv-Tixn-8" value="&lt;font style=&quot;font-size: 16px;&quot;&gt;S&lt;/font&gt;&lt;font style=&quot;font-size: 10px;&quot;&gt;CPT/TÂ°&lt;/font&gt;" style="edgeLabel;html=1;align=center;verticalAlign=middle;resizable=0;points=[];" vertex="1" connectable="0" parent="9HXGwuxbimEl4QIXXqQk-17">
          <mxGeometry x="-0.1595" y="-2" relative="1" as="geometry">
            <mxPoint as="offset" />
          </mxGeometry>
        </mxCell>
        <mxCell id="9HXGwuxbimEl4QIXXqQk-18" value="" style="endArrow=classic;html=1;rounded=0;exitX=0.5;exitY=1;exitDx=0;exitDy=0;entryX=0.5;entryY=0;entryDx=0;entryDy=0;strokeColor=#FF3333;" edge="1" parent="1" source="9HXGwuxbimEl4QIXXqQk-6" target="9HXGwuxbimEl4QIXXqQk-4">
          <mxGeometry width="50" height="50" relative="1" as="geometry">
            <mxPoint x="570" y="2930" as="sourcePoint" />
            <mxPoint x="620" y="2880" as="targetPoint" />
            <Array as="points">
              <mxPoint x="595" y="2760" />
              <mxPoint x="580" y="2760" />
            </Array>
          </mxGeometry>
        </mxCell>
        <mxCell id="zJ5ssoGyWrx72Gv-Tixn-4" value="&lt;font style=&quot;font-size: 16px;&quot;&gt;S&lt;/font&gt;&lt;font style=&quot;font-size: 10px;&quot;&gt;INA&lt;/font&gt;" style="edgeLabel;html=1;align=center;verticalAlign=middle;resizable=0;points=[];" vertex="1" connectable="0" parent="9HXGwuxbimEl4QIXXqQk-18">
          <mxGeometry x="-0.1879" relative="1" as="geometry">
            <mxPoint as="offset" />
          </mxGeometry>
        </mxCell>
        <mxCell id="9HXGwuxbimEl4QIXXqQk-22" value="" style="endArrow=classic;html=1;rounded=0;exitX=0.5;exitY=1;exitDx=0;exitDy=0;entryX=0.862;entryY=0.003;entryDx=0;entryDy=0;entryPerimeter=0;strokeColor=#FF3333;" edge="1" parent="1" source="9HXGwuxbimEl4QIXXqQk-7" target="9HXGwuxbimEl4QIXXqQk-4">
          <mxGeometry width="50" height="50" relative="1" as="geometry">
            <mxPoint x="640" y="2790" as="sourcePoint" />
            <mxPoint x="690" y="2740" as="targetPoint" />
            <Array as="points">
              <mxPoint x="765" y="2760" />
              <mxPoint x="720" y="2760" />
            </Array>
          </mxGeometry>
        </mxCell>
        <mxCell id="zJ5ssoGyWrx72Gv-Tixn-5" value="&lt;font style=&quot;font-size: 16px;&quot;&gt;S&lt;/font&gt;&lt;font style=&quot;font-size: 10px;&quot;&gt;CPT/TÂ°&lt;/font&gt;" style="edgeLabel;html=1;align=center;verticalAlign=middle;resizable=0;points=[];" vertex="1" connectable="0" parent="9HXGwuxbimEl4QIXXqQk-22">
          <mxGeometry x="-0.4303" y="1" relative="1" as="geometry">
            <mxPoint as="offset" />
          </mxGeometry>
        </mxCell>
        <mxCell id="zJ5ssoGyWrx72Gv-Tixn-11" value="&lt;font style=&quot;font-size: 10px;&quot;&gt;Vers FP1&lt;/font&gt;" style="text;html=1;align=center;verticalAlign=middle;whiteSpace=wrap;rounded=0;" vertex="1" parent="1">
          <mxGeometry x="400" y="3200" width="60" height="30" as="geometry" />
        </mxCell>
        <mxCell id="zJ5ssoGyWrx72Gv-Tixn-12" value="&lt;font style=&quot;font-size: 10px;&quot;&gt;Vers FP6&lt;/font&gt;" style="text;html=1;align=center;verticalAlign=middle;whiteSpace=wrap;rounded=0;" vertex="1" parent="1">
          <mxGeometry x="551" y="3070" width="60" height="30" as="geometry" />
        </mxCell>
        <mxCell id="zJ5ssoGyWrx72Gv-Tixn-13" value="&lt;font style=&quot;font-size: 10px;&quot;&gt;Vers FP7&lt;/font&gt;" style="text;html=1;align=center;verticalAlign=middle;whiteSpace=wrap;rounded=0;" vertex="1" parent="1">
          <mxGeometry x="711" y="3070" width="60" height="30" as="geometry" />
        </mxCell>
        <mxCell id="kBfQ11mAtG_p4Qt65heE-1" style="edgeStyle=orthogonalEdgeStyle;rounded=0;orthogonalLoop=1;jettySize=auto;html=1;exitX=1;exitY=0.5;exitDx=0;exitDy=0;entryX=0;entryY=0.25;entryDx=0;entryDy=0;dashed=1;" edge="1" parent="1" source="kBfQ11mAtG_p4Qt65heE-7" target="kBfQ11mAtG_p4Qt65heE-9">
          <mxGeometry relative="1" as="geometry" />
        </mxCell>
        <mxCell id="kBfQ11mAtG_p4Qt65heE-2" value="&lt;font style=&quot;font-size: 13px;&quot;&gt;V&lt;/font&gt;USB" style="edgeLabel;html=1;align=center;verticalAlign=middle;resizable=0;points=[];" vertex="1" connectable="0" parent="kBfQ11mAtG_p4Qt65heE-1">
          <mxGeometry x="-0.0468" y="2" relative="1" as="geometry">
            <mxPoint as="offset" />
          </mxGeometry>
        </mxCell>
        <mxCell id="kBfQ11mAtG_p4Qt65heE-5" style="edgeStyle=none;rounded=0;orthogonalLoop=1;jettySize=auto;html=1;entryX=0.25;entryY=0;entryDx=0;entryDy=0;dashed=1;" edge="1" parent="1" target="kBfQ11mAtG_p4Qt65heE-7">
          <mxGeometry relative="1" as="geometry">
            <mxPoint x="1540" y="250" as="targetPoint" />
            <mxPoint x="1524" y="200" as="sourcePoint" />
          </mxGeometry>
        </mxCell>
        <mxCell id="kBfQ11mAtG_p4Qt65heE-6" value="VESD" style="edgeLabel;html=1;align=center;verticalAlign=middle;resizable=0;points=[];" vertex="1" connectable="0" parent="kBfQ11mAtG_p4Qt65heE-5">
          <mxGeometry x="-0.3278" relative="1" as="geometry">
            <mxPoint as="offset" />
          </mxGeometry>
        </mxCell>
        <mxCell id="kBfQ11mAtG_p4Qt65heE-7" value="USB" style="rounded=0;whiteSpace=wrap;html=1;" vertex="1" parent="1">
          <mxGeometry x="1480" y="280" width="175" height="80" as="geometry" />
        </mxCell>
        <mxCell id="kBfQ11mAtG_p4Qt65heE-9" value="Circuit Logique Hardware&lt;div&gt;&lt;br&gt;&lt;/div&gt;&lt;div&gt;Alimentations&lt;/div&gt;&lt;div&gt;&lt;br&gt;&lt;/div&gt;" style="rounded=0;whiteSpace=wrap;html=1;" vertex="1" parent="1">
          <mxGeometry x="1780" y="360" width="270" height="90" as="geometry" />
        </mxCell>
        <mxCell id="kBfQ11mAtG_p4Qt65heE-10" style="edgeStyle=none;rounded=0;orthogonalLoop=1;jettySize=auto;html=1;entryX=0;entryY=0.5;entryDx=0;entryDy=0;dashed=1;exitX=1;exitY=0.5;exitDx=0;exitDy=0;" edge="1" parent="1" target="kBfQ11mAtG_p4Qt65heE-9" source="kBfQ11mAtG_p4Qt65heE-29">
          <mxGeometry relative="1" as="geometry">
            <mxPoint x="1339.09" y="260" as="targetPoint" />
            <mxPoint x="1660" y="405" as="sourcePoint" />
            <Array as="points">
              <mxPoint x="1640" y="434" />
              <mxPoint x="1640" y="405" />
            </Array>
          </mxGeometry>
        </mxCell>
        <mxCell id="kBfQ11mAtG_p4Qt65heE-30" value="VBT" style="edgeLabel;html=1;align=center;verticalAlign=middle;resizable=0;points=[];" vertex="1" connectable="0" parent="kBfQ11mAtG_p4Qt65heE-10">
          <mxGeometry x="-0.1235" y="2" relative="1" as="geometry">
            <mxPoint as="offset" />
          </mxGeometry>
        </mxCell>
        <mxCell id="kBfQ11mAtG_p4Qt65heE-11" style="edgeStyle=none;rounded=0;orthogonalLoop=1;jettySize=auto;html=1;entryX=0;entryY=0.75;entryDx=0;entryDy=0;dashed=1;exitX=1;exitY=0.5;exitDx=0;exitDy=0;" edge="1" parent="1" target="kBfQ11mAtG_p4Qt65heE-9" source="kBfQ11mAtG_p4Qt65heE-31">
          <mxGeometry relative="1" as="geometry">
            <mxPoint x="1390" y="260" as="targetPoint" />
            <mxPoint x="1670" y="428" as="sourcePoint" />
            <Array as="points">
              <mxPoint x="1710" y="550" />
              <mxPoint x="1710" y="430" />
            </Array>
          </mxGeometry>
        </mxCell>
        <mxCell id="kBfQ11mAtG_p4Qt65heE-12" value="&lt;font style=&quot;font-size: 14px;&quot;&gt;V&lt;/font&gt;HT" style="edgeLabel;html=1;align=center;verticalAlign=middle;resizable=0;points=[];" vertex="1" connectable="0" parent="kBfQ11mAtG_p4Qt65heE-11">
          <mxGeometry x="-0.537" y="1" relative="1" as="geometry">
            <mxPoint as="offset" />
          </mxGeometry>
        </mxCell>
        <mxCell id="kBfQ11mAtG_p4Qt65heE-13" value="FB2" style="rounded=0;whiteSpace=wrap;html=1;" vertex="1" parent="1">
          <mxGeometry x="1780" y="430" width="50" height="20" as="geometry" />
        </mxCell>
        <mxCell id="kBfQ11mAtG_p4Qt65heE-14" value="Protocole&lt;div&gt;&lt;br&gt;&lt;/div&gt;&lt;div&gt;I2C&lt;/div&gt;" style="rounded=0;whiteSpace=wrap;html=1;" vertex="1" parent="1">
          <mxGeometry x="550.4000000000001" y="1890" width="80" height="260" as="geometry" />
        </mxCell>
        <mxCell id="kBfQ11mAtG_p4Qt65heE-15" value="" style="endArrow=classic;startArrow=classic;html=1;rounded=0;strokeColor=#FF3333;exitX=0.005;exitY=0.372;exitDx=0;exitDy=0;exitPerimeter=0;" edge="1" parent="1">
          <mxGeometry width="50" height="50" relative="1" as="geometry">
            <mxPoint x="550.4000000000001" y="1940" as="sourcePoint" />
            <mxPoint x="400" y="1940.28" as="targetPoint" />
            <Array as="points" />
          </mxGeometry>
        </mxCell>
        <mxCell id="kBfQ11mAtG_p4Qt65heE-16" value="&lt;font style=&quot;font-size: 16px;&quot;&gt;S&lt;/font&gt;INA" style="edgeLabel;html=1;align=center;verticalAlign=middle;resizable=0;points=[];" vertex="1" connectable="0" parent="kBfQ11mAtG_p4Qt65heE-15">
          <mxGeometry x="0.0232" y="3" relative="1" as="geometry">
            <mxPoint as="offset" />
          </mxGeometry>
        </mxCell>
        <mxCell id="kBfQ11mAtG_p4Qt65heE-17" value="" style="endArrow=classic;startArrow=classic;html=1;rounded=0;exitX=1;exitY=0.25;exitDx=0;exitDy=0;strokeColor=#FF3333;entryX=0.015;entryY=0.581;entryDx=0;entryDy=0;entryPerimeter=0;" edge="1" parent="1" source="FFDSdk_p3Od6MazinmHW-6" target="kBfQ11mAtG_p4Qt65heE-14">
          <mxGeometry width="50" height="50" relative="1" as="geometry">
            <mxPoint x="549.9000000000001" y="2016" as="sourcePoint" />
            <mxPoint x="400.4000000000001" y="2040" as="targetPoint" />
            <Array as="points">
              <mxPoint x="501" y="2025" />
              <mxPoint x="500.9000000000001" y="2040" />
            </Array>
          </mxGeometry>
        </mxCell>
        <mxCell id="kBfQ11mAtG_p4Qt65heE-18" value="SGR1" style="edgeLabel;html=1;align=center;verticalAlign=middle;resizable=0;points=[];" vertex="1" connectable="0" parent="kBfQ11mAtG_p4Qt65heE-17">
          <mxGeometry x="-0.7896" y="3" relative="1" as="geometry">
            <mxPoint x="20" y="3" as="offset" />
          </mxGeometry>
        </mxCell>
        <mxCell id="kBfQ11mAtG_p4Qt65heE-19" value="" style="endArrow=classic;html=1;rounded=0;strokeColor=#FF3333;entryX=1;entryY=0.75;entryDx=0;entryDy=0;" edge="1" parent="1" target="FFDSdk_p3Od6MazinmHW-6">
          <mxGeometry width="50" height="50" relative="1" as="geometry">
            <mxPoint x="500.4000000000001" y="2040" as="sourcePoint" />
            <mxPoint x="550.4000000000001" y="2073" as="targetPoint" />
            <Array as="points">
              <mxPoint x="500" y="2055" />
            </Array>
          </mxGeometry>
        </mxCell>
        <mxCell id="kBfQ11mAtG_p4Qt65heE-20" value="SGR2" style="edgeLabel;html=1;align=center;verticalAlign=middle;resizable=0;points=[];" vertex="1" connectable="0" parent="kBfQ11mAtG_p4Qt65heE-19">
          <mxGeometry x="0.2193" y="-2" relative="1" as="geometry">
            <mxPoint x="-8" y="-5" as="offset" />
          </mxGeometry>
        </mxCell>
        <mxCell id="kBfQ11mAtG_p4Qt65heE-21" value="" style="endArrow=classic;startArrow=classic;html=1;rounded=0;strokeColor=#FF3333;exitX=0;exitY=0.923;exitDx=0;exitDy=0;exitPerimeter=0;" edge="1" parent="1" source="kBfQ11mAtG_p4Qt65heE-14">
          <mxGeometry width="50" height="50" relative="1" as="geometry">
            <mxPoint x="540.4000000000001" y="2130" as="sourcePoint" />
            <mxPoint x="400.4000000000001" y="2130" as="targetPoint" />
            <Array as="points">
              <mxPoint x="470.4000000000001" y="2130" />
            </Array>
          </mxGeometry>
        </mxCell>
        <mxCell id="kBfQ11mAtG_p4Qt65heE-22" value="&lt;font style=&quot;font-size: 16px;&quot;&gt;S&lt;/font&gt;&lt;font style=&quot;font-size: 10px;&quot;&gt;MIKROBUS&lt;/font&gt;" style="edgeLabel;html=1;align=center;verticalAlign=middle;resizable=0;points=[];" vertex="1" connectable="0" parent="kBfQ11mAtG_p4Qt65heE-21">
          <mxGeometry x="-0.5736" y="2" relative="1" as="geometry">
            <mxPoint x="-36" as="offset" />
          </mxGeometry>
        </mxCell>
        <mxCell id="kBfQ11mAtG_p4Qt65heE-23" value="Protocole&lt;div&gt;&lt;br&gt;&lt;/div&gt;&lt;div&gt;SPI&lt;/div&gt;" style="rounded=0;whiteSpace=wrap;html=1;" vertex="1" parent="1">
          <mxGeometry x="1735" y="1970.78" width="140" height="87" as="geometry" />
        </mxCell>
        <mxCell id="kBfQ11mAtG_p4Qt65heE-24" value="" style="endArrow=classic;html=1;rounded=0;entryX=0.576;entryY=0.009;entryDx=0;entryDy=0;strokeColor=#FF3333;entryPerimeter=0;" edge="1" parent="1">
          <mxGeometry width="50" height="50" relative="1" as="geometry">
            <mxPoint x="1845" y="1879.9999999999998" as="sourcePoint" />
            <mxPoint x="1845.64" y="1970.7829999999997" as="targetPoint" />
            <Array as="points">
              <mxPoint x="1845" y="1949.9999999999998" />
            </Array>
          </mxGeometry>
        </mxCell>
        <mxCell id="_IXqeEGwOZZ5JehQnMqI-1" value="&lt;font style=&quot;font-size: 16px;&quot;&gt;S&lt;/font&gt;&lt;font style=&quot;font-size: 10px;&quot;&gt;MIKROBUS&lt;/font&gt;" style="edgeLabel;html=1;align=center;verticalAlign=middle;resizable=0;points=[];" vertex="1" connectable="0" parent="kBfQ11mAtG_p4Qt65heE-24">
          <mxGeometry x="-0.1541" y="4" relative="1" as="geometry">
            <mxPoint as="offset" />
          </mxGeometry>
        </mxCell>
        <mxCell id="kBfQ11mAtG_p4Qt65heE-25" value="" style="endArrow=classic;startArrow=classic;html=1;rounded=0;strokeColor=#FF3333;" edge="1" parent="1">
          <mxGeometry width="50" height="50" relative="1" as="geometry">
            <mxPoint x="1775" y="1970.78" as="sourcePoint" />
            <mxPoint x="1775" y="1880.78" as="targetPoint" />
          </mxGeometry>
        </mxCell>
        <mxCell id="kBfQ11mAtG_p4Qt65heE-26" value="SCPT/TÂ°" style="edgeLabel;html=1;align=center;verticalAlign=middle;resizable=0;points=[];" vertex="1" connectable="0" parent="kBfQ11mAtG_p4Qt65heE-25">
          <mxGeometry x="0.1442" y="-3" relative="1" as="geometry">
            <mxPoint y="-1" as="offset" />
          </mxGeometry>
        </mxCell>
        <mxCell id="kBfQ11mAtG_p4Qt65heE-29" value="BT" style="rounded=0;whiteSpace=wrap;html=1;" vertex="1" parent="1">
          <mxGeometry x="1440" y="394" width="175" height="80" as="geometry" />
        </mxCell>
        <mxCell id="kBfQ11mAtG_p4Qt65heE-31" value="HT" style="rounded=0;whiteSpace=wrap;html=1;" vertex="1" parent="1">
          <mxGeometry x="1440" y="510" width="175" height="80" as="geometry" />
        </mxCell>
        <mxCell id="kBfQ11mAtG_p4Qt65heE-33" value="" style="endArrow=classic;html=1;rounded=0;exitX=1;exitY=0.5;exitDx=0;exitDy=0;dashed=1;" edge="1" parent="1" source="kBfQ11mAtG_p4Qt65heE-9">
          <mxGeometry width="50" height="50" relative="1" as="geometry">
            <mxPoint x="1820" y="330" as="sourcePoint" />
            <mxPoint x="2120" y="405" as="targetPoint" />
          </mxGeometry>
        </mxCell>
        <mxCell id="kBfQ11mAtG_p4Qt65heE-34" value="&lt;font style=&quot;font-size: 16px;&quot;&gt;V&lt;/font&gt;&lt;font style=&quot;font-size: 10px;&quot;&gt;ALIM&lt;/font&gt;" style="edgeLabel;html=1;align=center;verticalAlign=middle;resizable=0;points=[];" vertex="1" connectable="0" parent="kBfQ11mAtG_p4Qt65heE-33">
          <mxGeometry x="0.4686" y="-1" relative="1" as="geometry">
            <mxPoint x="-21" y="-1" as="offset" />
          </mxGeometry>
        </mxCell>
        <mxCell id="_IXqeEGwOZZ5JehQnMqI-5" value="&lt;font style=&quot;font-size: 10px;&quot;&gt;Vers FP1&lt;/font&gt;" style="text;html=1;align=center;verticalAlign=middle;whiteSpace=wrap;rounded=0;" vertex="1" parent="1">
          <mxGeometry x="730" y="2005" width="60" height="30" as="geometry" />
        </mxCell>
        <mxCell id="_IXqeEGwOZZ5JehQnMqI-6" value="&lt;font style=&quot;font-size: 10px;&quot;&gt;Vers FP1&lt;/font&gt;" style="text;html=1;align=center;verticalAlign=middle;whiteSpace=wrap;rounded=0;" vertex="1" parent="1">
          <mxGeometry x="1790" y="2150" width="60" height="30" as="geometry" />
        </mxCell>
        <mxCell id="_IXqeEGwOZZ5JehQnMqI-7" value="&lt;font style=&quot;font-size: 10px;&quot;&gt;Viens de FP5&lt;/font&gt;" style="text;html=1;align=center;verticalAlign=middle;whiteSpace=wrap;rounded=0;" vertex="1" parent="1">
          <mxGeometry x="1810" y="1850" width="80" height="30" as="geometry" />
        </mxCell>
        <mxCell id="FFDSdk_p3Od6MazinmHW-1" value="&lt;font style=&quot;font-size: 10px;&quot;&gt;Viens de FP7&lt;/font&gt;" style="text;html=1;align=center;verticalAlign=middle;whiteSpace=wrap;rounded=0;" vertex="1" parent="1">
          <mxGeometry x="1735" y="1850" width="80" height="30" as="geometry" />
        </mxCell>
        <mxCell id="FFDSdk_p3Od6MazinmHW-2" value="&lt;font style=&quot;font-size: 10px;&quot;&gt;Vers FP1&lt;/font&gt;" style="text;html=1;align=center;verticalAlign=middle;whiteSpace=wrap;rounded=0;" vertex="1" parent="1">
          <mxGeometry x="2120" y="390" width="60" height="30" as="geometry" />
        </mxCell>
        <mxCell id="FFDSdk_p3Od6MazinmHW-5" value="INA" style="rounded=0;whiteSpace=wrap;html=1;" vertex="1" parent="1">
          <mxGeometry x="280" y="1910.78" width="120" height="60" as="geometry" />
        </mxCell>
        <mxCell id="FFDSdk_p3Od6MazinmHW-6" value="GROVE 1 / GROVE 2" style="rounded=0;whiteSpace=wrap;html=1;" vertex="1" parent="1">
          <mxGeometry x="280" y="2010" width="120" height="60" as="geometry" />
        </mxCell>
        <mxCell id="r3AwZdJ3TJpNa5GIfcGG-1" value="MIKROBUS" style="rounded=0;whiteSpace=wrap;html=1;" vertex="1" parent="1">
          <mxGeometry x="280" y="2100" width="120" height="60" as="geometry" />
        </mxCell>
        <mxCell id="elq6dyeNt6GFFcod5qL_-2" value="" style="endArrow=classic;html=1;rounded=0;entryX=0.918;entryY=1;entryDx=0;entryDy=0;entryPerimeter=0;strokeColor=#FF3333;" edge="1" parent="1" target="9HXGwuxbimEl4QIXXqQk-4">
          <mxGeometry width="50" height="50" relative="1" as="geometry">
            <mxPoint x="740" y="2990" as="sourcePoint" />
            <mxPoint x="870" y="2830" as="targetPoint" />
            <Array as="points">
              <mxPoint x="740" y="2980" />
            </Array>
          </mxGeometry>
        </mxCell>
        <mxCell id="elq6dyeNt6GFFcod5qL_-3" value="" style="endArrow=classic;html=1;rounded=0;strokeColor=#FF3333;" edge="1" parent="1">
          <mxGeometry width="50" height="50" relative="1" as="geometry">
            <mxPoint x="580" y="2990" as="sourcePoint" />
            <mxPoint x="580" y="2970" as="targetPoint" />
            <Array as="points">
              <mxPoint x="580" y="2980" />
            </Array>
          </mxGeometry>
        </mxCell>
        <mxCell id="elq6dyeNt6GFFcod5qL_-4" value="FP7" style="rounded=0;whiteSpace=wrap;html=1;" vertex="1" parent="1">
          <mxGeometry x="391" y="2940" width="49" height="30" as="geometry" />
        </mxCell>
        <mxCell id="elq6dyeNt6GFFcod5qL_-5" value="FS7.1" style="rounded=0;whiteSpace=wrap;html=1;" vertex="1" parent="1">
          <mxGeometry x="360" y="2650" width="49" height="30" as="geometry" />
        </mxCell>
        <mxCell id="elq6dyeNt6GFFcod5qL_-6" value="FS7.2" style="rounded=0;whiteSpace=wrap;html=1;" vertex="1" parent="1">
          <mxGeometry x="530" y="2650" width="49" height="30" as="geometry" />
        </mxCell>
        <mxCell id="elq6dyeNt6GFFcod5qL_-7" value="FS7.3" style="rounded=0;whiteSpace=wrap;html=1;" vertex="1" parent="1">
          <mxGeometry x="700.5" y="2650" width="49" height="30" as="geometry" />
        </mxCell>
        <mxCell id="elq6dyeNt6GFFcod5qL_-8" value="FS7.4" style="rounded=0;whiteSpace=wrap;html=1;" vertex="1" parent="1">
          <mxGeometry x="400" y="3130" width="40" height="20" as="geometry" />
        </mxCell>
        <mxCell id="elq6dyeNt6GFFcod5qL_-9" value="FP6" style="rounded=0;whiteSpace=wrap;html=1;" vertex="1" parent="1">
          <mxGeometry x="1735" y="2030" width="45" height="27.78" as="geometry" />
        </mxCell>
        <mxCell id="elq6dyeNt6GFFcod5qL_-10" value="FP5" style="rounded=0;whiteSpace=wrap;html=1;" vertex="1" parent="1">
          <mxGeometry x="551" y="2120" width="49" height="30" as="geometry" />
        </mxCell>
        <mxCell id="elq6dyeNt6GFFcod5qL_-11" value="FS5.1" style="rounded=0;whiteSpace=wrap;html=1;" vertex="1" parent="1">
          <mxGeometry x="280" y="1950" width="40" height="20.78" as="geometry" />
        </mxCell>
        <mxCell id="elq6dyeNt6GFFcod5qL_-12" value="FS5.2" style="rounded=0;whiteSpace=wrap;html=1;" vertex="1" parent="1">
          <mxGeometry x="280" y="2049.22" width="40" height="20.78" as="geometry" />
        </mxCell>
        <mxCell id="elq6dyeNt6GFFcod5qL_-13" value="FS5.3" style="rounded=0;whiteSpace=wrap;html=1;" vertex="1" parent="1">
          <mxGeometry x="280" y="2139.22" width="40" height="20.78" as="geometry" />
        </mxCell>
        <mxCell id="elq6dyeNt6GFFcod5qL_-14" value="FP4" style="rounded=0;whiteSpace=wrap;html=1;" vertex="1" parent="1">
          <mxGeometry x="1640" y="1275" width="60" height="40" as="geometry" />
        </mxCell>
        <mxCell id="elq6dyeNt6GFFcod5qL_-15" value="FS4.1" style="rounded=0;whiteSpace=wrap;html=1;" vertex="1" parent="1">
          <mxGeometry x="1640" y="990" width="60" height="40" as="geometry" />
        </mxCell>
        <mxCell id="elq6dyeNt6GFFcod5qL_-16" value="FS3.1" style="rounded=0;whiteSpace=wrap;html=1;" vertex="1" parent="1">
          <mxGeometry x="743.5" y="1220" width="60" height="40" as="geometry" />
        </mxCell>
        <mxCell id="elq6dyeNt6GFFcod5qL_-17" value="FS3.2" style="rounded=0;whiteSpace=wrap;html=1;" vertex="1" parent="1">
          <mxGeometry x="230" y="1220" width="60" height="40" as="geometry" />
        </mxCell>
        <mxCell id="elq6dyeNt6GFFcod5qL_-18" value="FS3.3" style="rounded=0;whiteSpace=wrap;html=1;" vertex="1" parent="1">
          <mxGeometry x="230" y="1000" width="60" height="40" as="geometry" />
        </mxCell>
        <mxCell id="elq6dyeNt6GFFcod5qL_-19" value="FS3.4" style="rounded=0;whiteSpace=wrap;html=1;" vertex="1" parent="1">
          <mxGeometry x="743.5" y="1000" width="60" height="40" as="geometry" />
        </mxCell>
        <mxCell id="elq6dyeNt6GFFcod5qL_-20" value="FS2.2" style="rounded=0;whiteSpace=wrap;html=1;" vertex="1" parent="1">
          <mxGeometry x="1440" y="454" width="50" height="20" as="geometry" />
        </mxCell>
        <mxCell id="elq6dyeNt6GFFcod5qL_-22" value="FS2.3" style="rounded=0;whiteSpace=wrap;html=1;" vertex="1" parent="1">
          <mxGeometry x="1440" y="570" width="50" height="20" as="geometry" />
        </mxCell>
        <mxCell id="elq6dyeNt6GFFcod5qL_-23" value="FS2.1" style="rounded=0;whiteSpace=wrap;html=1;" vertex="1" parent="1">
          <mxGeometry x="1480" y="340" width="50" height="20" as="geometry" />
        </mxCell>
        <mxCell id="GSVipYlm1un1cRw8u7XN-1" value="LÃ‰GENDE&amp;nbsp; :" style="text;html=1;align=center;verticalAlign=middle;whiteSpace=wrap;rounded=0;" vertex="1" parent="1">
          <mxGeometry x="850" y="630" width="90" height="30" as="geometry" />
        </mxCell>
        <mxCell id="GSVipYlm1un1cRw8u7XN-2" value="" style="endArrow=classic;html=1;rounded=0;strokeColor=#FF3333;" edge="1" parent="1">
          <mxGeometry width="50" height="50" relative="1" as="geometry">
            <mxPoint x="870" y="680" as="sourcePoint" />
            <mxPoint x="950" y="680" as="targetPoint" />
          </mxGeometry>
        </mxCell>
        <mxCell id="GSVipYlm1un1cRw8u7XN-3" value="S" style="edgeLabel;html=1;align=center;verticalAlign=middle;resizable=0;points=[];" vertex="1" connectable="0" parent="GSVipYlm1un1cRw8u7XN-2">
          <mxGeometry x="-0.0794" relative="1" as="geometry">
            <mxPoint as="offset" />
          </mxGeometry>
        </mxCell>
        <mxCell id="GSVipYlm1un1cRw8u7XN-4" value="" style="endArrow=classic;html=1;rounded=0;dashed=1;" edge="1" parent="1">
          <mxGeometry width="50" height="50" relative="1" as="geometry">
            <mxPoint x="870" y="710" as="sourcePoint" />
            <mxPoint x="950" y="710" as="targetPoint" />
          </mxGeometry>
        </mxCell>
        <mxCell id="GSVipYlm1un1cRw8u7XN-5" value="V" style="edgeLabel;html=1;align=center;verticalAlign=middle;resizable=0;points=[];" vertex="1" connectable="0" parent="GSVipYlm1un1cRw8u7XN-4">
          <mxGeometry x="-0.05" y="-3" relative="1" as="geometry">
            <mxPoint y="-3" as="offset" />
          </mxGeometry>
        </mxCell>
        <mxCell id="GSVipYlm1un1cRw8u7XN-6" value="Signal gÃ©rÃ© en soft" style="text;html=1;align=center;verticalAlign=middle;whiteSpace=wrap;rounded=0;" vertex="1" parent="1">
          <mxGeometry x="950" y="667" width="110" height="30" as="geometry" />
        </mxCell>
        <mxCell id="GSVipYlm1un1cRw8u7XN-7" value="Signal gÃ©rÃ© en hard" style="text;html=1;align=center;verticalAlign=middle;whiteSpace=wrap;rounded=0;" vertex="1" parent="1">
          <mxGeometry x="950" y="695" width="110" height="30" as="geometry" />
        </mxCell>
        <mxCell id="GSVipYlm1un1cRw8u7XN-8" value="" style="rounded=0;whiteSpace=wrap;html=1;fillColor=none;" vertex="1" parent="1">
          <mxGeometry x="840" y="630" width="240" height="110" as="geometry" />
        </mxCell>
        <mxCell id="GSVipYlm1un1cRw8u7XN-9" value="" style="rounded=0;whiteSpace=wrap;html=1;fillColor=none;" vertex="1" parent="1">
          <mxGeometry x="1160" y="800" width="1170" height="30" as="geometry" />
        </mxCell>
        <mxCell id="GSVipYlm1un1cRw8u7XN-10" value="" style="rounded=0;whiteSpace=wrap;html=1;fillColor=none;" vertex="1" parent="1">
          <mxGeometry y="800" width="1160" height="30" as="geometry" />
        </mxCell>
        <mxCell id="GSVipYlm1un1cRw8u7XN-11" value="" style="rounded=0;whiteSpace=wrap;html=1;fillColor=none;" vertex="1" parent="1">
          <mxGeometry width="1160" height="30" as="geometry" />
        </mxCell>
        <mxCell id="GSVipYlm1un1cRw8u7XN-12" value="" style="rounded=0;whiteSpace=wrap;html=1;fillColor=none;" vertex="1" parent="1">
          <mxGeometry x="1160" width="1170" height="30" as="geometry" />
        </mxCell>
        <mxCell id="GSVipYlm1un1cRw8u7XN-14" value="" style="rounded=0;whiteSpace=wrap;html=1;fillColor=none;" vertex="1" parent="1">
          <mxGeometry y="1654" width="1160" height="30" as="geometry" />
        </mxCell>
        <mxCell id="GSVipYlm1un1cRw8u7XN-15" value="" style="rounded=0;whiteSpace=wrap;html=1;fillColor=none;" vertex="1" parent="1">
          <mxGeometry x="1160" y="1654" width="1175" height="30" as="geometry" />
        </mxCell>
        <mxCell id="GSVipYlm1un1cRw8u7XN-16" value="" style="rounded=0;whiteSpace=wrap;html=1;fillColor=none;" vertex="1" parent="1">
          <mxGeometry y="2480" width="1160" height="30" as="geometry" />
        </mxCell>
        <mxCell id="GSVipYlm1un1cRw8u7XN-17" value="" style="endArrow=none;html=1;rounded=0;entryX=0;entryY=0;entryDx=0;entryDy=0;" edge="1" parent="1" target="GSVipYlm1un1cRw8u7XN-11">
          <mxGeometry width="50" height="50" relative="1" as="geometry">
            <mxPoint y="3310" as="sourcePoint" />
            <mxPoint x="410" y="810" as="targetPoint" />
          </mxGeometry>
        </mxCell>
        <mxCell id="GSVipYlm1un1cRw8u7XN-18" value="" style="endArrow=none;html=1;rounded=0;" edge="1" parent="1">
          <mxGeometry width="50" height="50" relative="1" as="geometry">
            <mxPoint y="3310" as="sourcePoint" />
            <mxPoint x="2340" y="3310" as="targetPoint" />
          </mxGeometry>
        </mxCell>
        <mxCell id="GSVipYlm1un1cRw8u7XN-19" value="" style="endArrow=none;html=1;rounded=0;entryX=1;entryY=0;entryDx=0;entryDy=0;" edge="1" parent="1" target="GSVipYlm1un1cRw8u7XN-12">
          <mxGeometry width="50" height="50" relative="1" as="geometry">
            <mxPoint x="2340" y="3310" as="sourcePoint" />
            <mxPoint x="2340" y="740" as="targetPoint" />
          </mxGeometry>
        </mxCell>
        <mxCell id="Jt-7ObPEiLhGfgnPSq5N-1" value="" style="endArrow=classic;startArrow=classic;html=1;rounded=0;strokeColor=#FF3333;" edge="1" parent="1">
          <mxGeometry width="50" height="50" relative="1" as="geometry">
            <mxPoint x="630.4000000000001" y="2056.67" as="sourcePoint" />
            <mxPoint x="720.4000000000001" y="2056.67" as="targetPoint" />
          </mxGeometry>
        </mxCell>
        <mxCell id="Jt-7ObPEiLhGfgnPSq5N-2" value="&lt;span style=&quot;font-size: 16px;&quot;&gt;S&lt;/span&gt;&lt;font style=&quot;font-size: 11px;&quot;&gt;SDA&lt;/font&gt;" style="edgeLabel;html=1;align=center;verticalAlign=middle;resizable=0;points=[];" vertex="1" connectable="0" parent="Jt-7ObPEiLhGfgnPSq5N-1">
          <mxGeometry x="0.063" y="1" relative="1" as="geometry">
            <mxPoint x="-1" as="offset" />
          </mxGeometry>
        </mxCell>
        <mxCell id="Jt-7ObPEiLhGfgnPSq5N-4" value="" style="endArrow=classic;startArrow=classic;html=1;rounded=0;strokeColor=#000000;dashed=1;" edge="1" parent="1">
          <mxGeometry width="50" height="50" relative="1" as="geometry">
            <mxPoint x="630.4000000000001" y="2090" as="sourcePoint" />
            <mxPoint x="720.4000000000001" y="2090" as="targetPoint" />
          </mxGeometry>
        </mxCell>
        <mxCell id="Jt-7ObPEiLhGfgnPSq5N-5" value="&lt;span style=&quot;font-size: 16px;&quot;&gt;GND&lt;/span&gt;" style="edgeLabel;html=1;align=center;verticalAlign=middle;resizable=0;points=[];" vertex="1" connectable="0" parent="Jt-7ObPEiLhGfgnPSq5N-4">
          <mxGeometry x="0.063" y="1" relative="1" as="geometry">
            <mxPoint x="-1" as="offset" />
          </mxGeometry>
        </mxCell>
        <mxCell id="Jt-7ObPEiLhGfgnPSq5N-7" value="" style="endArrow=classic;startArrow=classic;html=1;rounded=0;strokeColor=#000000;dashed=1;" edge="1" parent="1">
          <mxGeometry width="50" height="50" relative="1" as="geometry">
            <mxPoint x="630.4000000000001" y="1990" as="sourcePoint" />
            <mxPoint x="720.4000000000001" y="1990" as="targetPoint" />
          </mxGeometry>
        </mxCell>
        <mxCell id="Jt-7ObPEiLhGfgnPSq5N-8" value="&lt;span style=&quot;font-size: 16px;&quot;&gt;Vcc&lt;/span&gt;" style="edgeLabel;html=1;align=center;verticalAlign=middle;resizable=0;points=[];" vertex="1" connectable="0" parent="Jt-7ObPEiLhGfgnPSq5N-7">
          <mxGeometry x="0.063" y="1" relative="1" as="geometry">
            <mxPoint x="-1" as="offset" />
          </mxGeometry>
        </mxCell>
        <mxCell id="Jt-7ObPEiLhGfgnPSq5N-9" value="&lt;font style=&quot;font-size: 10px;&quot;&gt;Vers FP1&lt;/font&gt;" style="text;html=1;align=center;verticalAlign=middle;whiteSpace=wrap;rounded=0;" vertex="1" parent="1">
          <mxGeometry x="730" y="2043" width="60" height="30" as="geometry" />
        </mxCell>
        <mxCell id="Jt-7ObPEiLhGfgnPSq5N-12" value="" style="endArrow=classic;startArrow=classic;html=1;rounded=0;strokeColor=#FF3333;" edge="1" parent="1">
          <mxGeometry width="50" height="50" relative="1" as="geometry">
            <mxPoint x="710" y="218.67000000000007" as="sourcePoint" />
            <mxPoint x="800" y="218.67000000000007" as="targetPoint" />
          </mxGeometry>
        </mxCell>
        <mxCell id="Jt-7ObPEiLhGfgnPSq5N-13" value="&lt;span style=&quot;font-size: 16px;&quot;&gt;S&lt;/span&gt;&lt;font style=&quot;font-size: 11px;&quot;&gt;SDA&lt;/font&gt;" style="edgeLabel;html=1;align=center;verticalAlign=middle;resizable=0;points=[];" vertex="1" connectable="0" parent="Jt-7ObPEiLhGfgnPSq5N-12">
          <mxGeometry x="0.063" y="1" relative="1" as="geometry">
            <mxPoint x="-1" as="offset" />
          </mxGeometry>
        </mxCell>
        <mxCell id="Jt-7ObPEiLhGfgnPSq5N-14" value="" style="endArrow=classic;startArrow=classic;html=1;rounded=0;strokeColor=#000000;dashed=1;" edge="1" parent="1">
          <mxGeometry width="50" height="50" relative="1" as="geometry">
            <mxPoint x="710" y="252" as="sourcePoint" />
            <mxPoint x="800" y="252" as="targetPoint" />
          </mxGeometry>
        </mxCell>
        <mxCell id="Jt-7ObPEiLhGfgnPSq5N-15" value="&lt;span style=&quot;font-size: 16px;&quot;&gt;GND&lt;/span&gt;" style="edgeLabel;html=1;align=center;verticalAlign=middle;resizable=0;points=[];" vertex="1" connectable="0" parent="Jt-7ObPEiLhGfgnPSq5N-14">
          <mxGeometry x="0.063" y="1" relative="1" as="geometry">
            <mxPoint x="-1" as="offset" />
          </mxGeometry>
        </mxCell>
        <mxCell id="Jt-7ObPEiLhGfgnPSq5N-16" value="" style="endArrow=classic;startArrow=classic;html=1;rounded=0;strokeColor=#000000;dashed=1;" edge="1" parent="1">
          <mxGeometry width="50" height="50" relative="1" as="geometry">
            <mxPoint x="710" y="152" as="sourcePoint" />
            <mxPoint x="800" y="152" as="targetPoint" />
          </mxGeometry>
        </mxCell>
        <mxCell id="Jt-7ObPEiLhGfgnPSq5N-17" value="&lt;span style=&quot;font-size: 16px;&quot;&gt;Vcc&lt;/span&gt;" style="edgeLabel;html=1;align=center;verticalAlign=middle;resizable=0;points=[];" vertex="1" connectable="0" parent="Jt-7ObPEiLhGfgnPSq5N-16">
          <mxGeometry x="0.063" y="1" relative="1" as="geometry">
            <mxPoint x="-1" as="offset" />
          </mxGeometry>
        </mxCell>
        <mxCell id="Jt-7ObPEiLhGfgnPSq5N-21" value="" style="rounded=0;whiteSpace=wrap;html=1;fillColor=none;dashed=1;" vertex="1" parent="1">
          <mxGeometry x="740" y="140" width="120" height="127" as="geometry" />
        </mxCell>
        <mxCell id="Jt-7ObPEiLhGfgnPSq5N-22" value="I2C" style="text;html=1;align=center;verticalAlign=middle;whiteSpace=wrap;rounded=0;" vertex="1" parent="1">
          <mxGeometry x="803.5" y="140" width="60" height="30" as="geometry" />
        </mxCell>
        <mxCell id="Jt-7ObPEiLhGfgnPSq5N-24" value="" style="endArrow=classic;html=1;rounded=0;exitX=0.317;exitY=1.003;exitDx=0;exitDy=0;exitPerimeter=0;strokeColor=#FF3333;" edge="1" parent="1" source="kBfQ11mAtG_p4Qt65heE-23">
          <mxGeometry width="50" height="50" relative="1" as="geometry">
            <mxPoint x="1780" y="2070" as="sourcePoint" />
            <mxPoint x="1780" y="2140" as="targetPoint" />
          </mxGeometry>
        </mxCell>
        <mxCell id="Jt-7ObPEiLhGfgnPSq5N-28" value="SCK" style="edgeLabel;html=1;align=center;verticalAlign=middle;resizable=0;points=[];" vertex="1" connectable="0" parent="Jt-7ObPEiLhGfgnPSq5N-24">
          <mxGeometry x="0.4525" y="2" relative="1" as="geometry">
            <mxPoint as="offset" />
          </mxGeometry>
        </mxCell>
        <mxCell id="Jt-7ObPEiLhGfgnPSq5N-25" value="" style="endArrow=classic;html=1;rounded=0;exitX=0.317;exitY=1.003;exitDx=0;exitDy=0;exitPerimeter=0;strokeColor=#FF3333;" edge="1" parent="1">
          <mxGeometry width="50" height="50" relative="1" as="geometry">
            <mxPoint x="1804.44" y="2057.78" as="sourcePoint" />
            <mxPoint x="1805.44" y="2139.78" as="targetPoint" />
          </mxGeometry>
        </mxCell>
        <mxCell id="Jt-7ObPEiLhGfgnPSq5N-29" value="MISO" style="edgeLabel;html=1;align=center;verticalAlign=middle;resizable=0;points=[];" vertex="1" connectable="0" parent="Jt-7ObPEiLhGfgnPSq5N-25">
          <mxGeometry x="-0.1185" y="1" relative="1" as="geometry">
            <mxPoint as="offset" />
          </mxGeometry>
        </mxCell>
        <mxCell id="Jt-7ObPEiLhGfgnPSq5N-26" value="" style="endArrow=classic;html=1;rounded=0;exitX=0.317;exitY=1.003;exitDx=0;exitDy=0;exitPerimeter=0;strokeColor=#FF3333;" edge="1" parent="1">
          <mxGeometry width="50" height="50" relative="1" as="geometry">
            <mxPoint x="1860" y="2057.78" as="sourcePoint" />
            <mxPoint x="1861" y="2139.78" as="targetPoint" />
          </mxGeometry>
        </mxCell>
        <mxCell id="Jt-7ObPEiLhGfgnPSq5N-31" value="CS" style="edgeLabel;html=1;align=center;verticalAlign=middle;resizable=0;points=[];" vertex="1" connectable="0" parent="Jt-7ObPEiLhGfgnPSq5N-26">
          <mxGeometry x="-0.1188" relative="1" as="geometry">
            <mxPoint as="offset" />
          </mxGeometry>
        </mxCell>
        <mxCell id="Jt-7ObPEiLhGfgnPSq5N-27" value="" style="endArrow=classic;html=1;rounded=0;strokeColor=#FF3333;" edge="1" parent="1">
          <mxGeometry width="50" height="50" relative="1" as="geometry">
            <mxPoint x="1832" y="2140" as="sourcePoint" />
            <mxPoint x="1832" y="2057.78" as="targetPoint" />
          </mxGeometry>
        </mxCell>
        <mxCell id="Jt-7ObPEiLhGfgnPSq5N-30" value="MOSI" style="edgeLabel;html=1;align=center;verticalAlign=middle;resizable=0;points=[];" vertex="1" connectable="0" parent="Jt-7ObPEiLhGfgnPSq5N-27">
          <mxGeometry x="-0.4317" y="1" relative="1" as="geometry">
            <mxPoint as="offset" />
          </mxGeometry>
        </mxCell>
        <mxCell id="Jt-7ObPEiLhGfgnPSq5N-48" value="" style="endArrow=classic;html=1;rounded=0;strokeColor=#FF3333;entryX=-0.003;entryY=0.395;entryDx=0;entryDy=0;entryPerimeter=0;" edge="1" parent="1" target="rCXYzEkiWeuKtUZMqGnk-3">
          <mxGeometry width="50" height="50" relative="1" as="geometry">
            <mxPoint x="300" y="320" as="sourcePoint" />
            <mxPoint x="370" y="290" as="targetPoint" />
          </mxGeometry>
        </mxCell>
        <mxCell id="Jt-7ObPEiLhGfgnPSq5N-49" value="SCK" style="edgeLabel;html=1;align=center;verticalAlign=middle;resizable=0;points=[];" vertex="1" connectable="0" parent="Jt-7ObPEiLhGfgnPSq5N-48">
          <mxGeometry x="0.4525" y="2" relative="1" as="geometry">
            <mxPoint as="offset" />
          </mxGeometry>
        </mxCell>
        <mxCell id="Jt-7ObPEiLhGfgnPSq5N-50" value="" style="endArrow=classic;html=1;rounded=0;strokeColor=#FF3333;entryX=0;entryY=0.438;entryDx=0;entryDy=0;entryPerimeter=0;" edge="1" parent="1" target="rCXYzEkiWeuKtUZMqGnk-3">
          <mxGeometry width="50" height="50" relative="1" as="geometry">
            <mxPoint x="300" y="340" as="sourcePoint" />
            <mxPoint x="260" y="339.66" as="targetPoint" />
            <Array as="points">
              <mxPoint x="340" y="339.66" />
            </Array>
          </mxGeometry>
        </mxCell>
        <mxCell id="Jt-7ObPEiLhGfgnPSq5N-51" value="MISO" style="edgeLabel;html=1;align=center;verticalAlign=middle;resizable=0;points=[];" vertex="1" connectable="0" parent="Jt-7ObPEiLhGfgnPSq5N-50">
          <mxGeometry x="-0.1185" y="1" relative="1" as="geometry">
            <mxPoint as="offset" />
          </mxGeometry>
        </mxCell>
        <mxCell id="Jt-7ObPEiLhGfgnPSq5N-52" value="" style="endArrow=classic;html=1;rounded=0;strokeColor=#FF3333;entryX=0.002;entryY=0.521;entryDx=0;entryDy=0;entryPerimeter=0;" edge="1" parent="1" target="rCXYzEkiWeuKtUZMqGnk-3">
          <mxGeometry width="50" height="50" relative="1" as="geometry">
            <mxPoint x="300" y="380" as="sourcePoint" />
            <mxPoint x="398" y="380" as="targetPoint" />
          </mxGeometry>
        </mxCell>
        <mxCell id="Jt-7ObPEiLhGfgnPSq5N-53" value="CS" style="edgeLabel;html=1;align=center;verticalAlign=middle;resizable=0;points=[];" vertex="1" connectable="0" parent="Jt-7ObPEiLhGfgnPSq5N-52">
          <mxGeometry x="-0.1188" relative="1" as="geometry">
            <mxPoint as="offset" />
          </mxGeometry>
        </mxCell>
        <mxCell id="Jt-7ObPEiLhGfgnPSq5N-54" value="" style="endArrow=classic;html=1;rounded=0;strokeColor=#FF3333;exitX=-0.002;exitY=0.479;exitDx=0;exitDy=0;exitPerimeter=0;" edge="1" parent="1" source="rCXYzEkiWeuKtUZMqGnk-3">
          <mxGeometry width="50" height="50" relative="1" as="geometry">
            <mxPoint x="320" y="360" as="sourcePoint" />
            <mxPoint x="300" y="360" as="targetPoint" />
          </mxGeometry>
        </mxCell>
        <mxCell id="Jt-7ObPEiLhGfgnPSq5N-55" value="MOSI" style="edgeLabel;html=1;align=center;verticalAlign=middle;resizable=0;points=[];" vertex="1" connectable="0" parent="Jt-7ObPEiLhGfgnPSq5N-54">
          <mxGeometry x="-0.4317" y="1" relative="1" as="geometry">
            <mxPoint as="offset" />
          </mxGeometry>
        </mxCell>
        <mxCell id="Jt-7ObPEiLhGfgnPSq5N-56" value="" style="rounded=0;whiteSpace=wrap;html=1;fillColor=none;dashed=1;" vertex="1" parent="1">
          <mxGeometry x="270" y="293" width="120" height="127" as="geometry" />
        </mxCell>
        <mxCell id="Jt-7ObPEiLhGfgnPSq5N-57" value="SPI" style="text;html=1;align=center;verticalAlign=middle;whiteSpace=wrap;rounded=0;" vertex="1" parent="1">
          <mxGeometry x="270" y="293" width="60" height="30" as="geometry" />
        </mxCell>
        <mxCell id="Jt-7ObPEiLhGfgnPSq5N-59" value="&lt;font style=&quot;font-size: 10px;&quot;&gt;Vers FP6&lt;/font&gt;" style="text;html=1;align=center;verticalAlign=middle;whiteSpace=wrap;rounded=0;" vertex="1" parent="1">
          <mxGeometry x="200" y="340" width="60" height="30" as="geometry" />
        </mxCell>
        <mxCell id="Jt-7ObPEiLhGfgnPSq5N-61" value="" style="endArrow=classic;html=1;rounded=0;strokeColor=#FF3333;" edge="1" parent="1">
          <mxGeometry width="50" height="50" relative="1" as="geometry">
            <mxPoint x="1600" y="280.5" as="sourcePoint" />
            <mxPoint x="1600" y="200.5" as="targetPoint" />
          </mxGeometry>
        </mxCell>
        <mxCell id="Jt-7ObPEiLhGfgnPSq5N-68" value="Tx1" style="edgeLabel;html=1;align=center;verticalAlign=middle;resizable=0;points=[];" vertex="1" connectable="0" parent="Jt-7ObPEiLhGfgnPSq5N-61">
          <mxGeometry x="-0.0446" relative="1" as="geometry">
            <mxPoint y="10" as="offset" />
          </mxGeometry>
        </mxCell>
        <mxCell id="Jt-7ObPEiLhGfgnPSq5N-63" value="" style="endArrow=classic;html=1;rounded=0;strokeColor=#FF3333;" edge="1" parent="1">
          <mxGeometry width="50" height="50" relative="1" as="geometry">
            <mxPoint x="1620" y="280" as="sourcePoint" />
            <mxPoint x="1620" y="200" as="targetPoint" />
          </mxGeometry>
        </mxCell>
        <mxCell id="Jt-7ObPEiLhGfgnPSq5N-69" value="Rx1" style="edgeLabel;html=1;align=center;verticalAlign=middle;resizable=0;points=[];" vertex="1" connectable="0" parent="Jt-7ObPEiLhGfgnPSq5N-63">
          <mxGeometry x="0.0321" relative="1" as="geometry">
            <mxPoint as="offset" />
          </mxGeometry>
        </mxCell>
        <mxCell id="Jt-7ObPEiLhGfgnPSq5N-64" value="" style="endArrow=classic;html=1;rounded=0;strokeColor=#000000;dashed=1;exitX=0.571;exitY=0;exitDx=0;exitDy=0;exitPerimeter=0;" edge="1" parent="1" source="kBfQ11mAtG_p4Qt65heE-7">
          <mxGeometry width="50" height="50" relative="1" as="geometry">
            <mxPoint x="1580" y="200" as="sourcePoint" />
            <mxPoint x="1580" y="200" as="targetPoint" />
          </mxGeometry>
        </mxCell>
        <mxCell id="Jt-7ObPEiLhGfgnPSq5N-67" value="Vcc" style="edgeLabel;html=1;align=center;verticalAlign=middle;resizable=0;points=[];" vertex="1" connectable="0" parent="Jt-7ObPEiLhGfgnPSq5N-64">
          <mxGeometry x="-0.05" y="-2" relative="1" as="geometry">
            <mxPoint as="offset" />
          </mxGeometry>
        </mxCell>
        <mxCell id="Jt-7ObPEiLhGfgnPSq5N-65" value="" style="endArrow=classic;html=1;rounded=0;strokeColor=#000000;dashed=1;exitX=0.912;exitY=-0.001;exitDx=0;exitDy=0;exitPerimeter=0;" edge="1" parent="1" source="kBfQ11mAtG_p4Qt65heE-7">
          <mxGeometry width="50" height="50" relative="1" as="geometry">
            <mxPoint x="1640" y="187" as="sourcePoint" />
            <mxPoint x="1640" y="200" as="targetPoint" />
          </mxGeometry>
        </mxCell>
        <mxCell id="Jt-7ObPEiLhGfgnPSq5N-66" value="GND" style="edgeLabel;html=1;align=center;verticalAlign=middle;resizable=0;points=[];" vertex="1" connectable="0" parent="Jt-7ObPEiLhGfgnPSq5N-65">
          <mxGeometry x="-0.0741" y="-1" relative="1" as="geometry">
            <mxPoint x="1" y="14" as="offset" />
          </mxGeometry>
        </mxCell>
        <mxCell id="Jt-7ObPEiLhGfgnPSq5N-70" value="" style="rounded=0;whiteSpace=wrap;html=1;fillColor=none;dashed=1;" vertex="1" parent="1">
          <mxGeometry x="1560" y="180" width="120" height="83" as="geometry" />
        </mxCell>
        <mxCell id="Jt-7ObPEiLhGfgnPSq5N-71" value="UART" style="text;html=1;align=center;verticalAlign=middle;whiteSpace=wrap;rounded=0;" vertex="1" parent="1">
          <mxGeometry x="1630" y="190" width="60" as="geometry" />
        </mxCell>
        <mxCell id="Jt-7ObPEiLhGfgnPSq5N-72" value="" style="endArrow=classic;html=1;rounded=0;entryX=1.006;entryY=0.645;entryDx=0;entryDy=0;entryPerimeter=0;strokeColor=#FF3333;" edge="1" parent="1">
          <mxGeometry width="50" height="50" relative="1" as="geometry">
            <mxPoint x="800" y="541" as="sourcePoint" />
            <mxPoint x="711.8599999999997" y="540.6000000000001" as="targetPoint" />
          </mxGeometry>
        </mxCell>
        <mxCell id="Jt-7ObPEiLhGfgnPSq5N-74" value="SRX1" style="edgeLabel;html=1;align=center;verticalAlign=middle;resizable=0;points=[];" vertex="1" connectable="0" parent="Jt-7ObPEiLhGfgnPSq5N-72">
          <mxGeometry x="0.0659" relative="1" as="geometry">
            <mxPoint as="offset" />
          </mxGeometry>
        </mxCell>
        <mxCell id="Jt-7ObPEiLhGfgnPSq5N-73" value="" style="endArrow=classic;html=1;rounded=0;entryX=1.006;entryY=0.645;entryDx=0;entryDy=0;entryPerimeter=0;strokeColor=#FF3333;" edge="1" parent="1">
          <mxGeometry width="50" height="50" relative="1" as="geometry">
            <mxPoint x="799" y="559.88" as="sourcePoint" />
            <mxPoint x="711" y="559.88" as="targetPoint" />
          </mxGeometry>
        </mxCell>
        <mxCell id="Jt-7ObPEiLhGfgnPSq5N-75" value="STX1" style="edgeLabel;html=1;align=center;verticalAlign=middle;resizable=0;points=[];" vertex="1" connectable="0" parent="Jt-7ObPEiLhGfgnPSq5N-73">
          <mxGeometry x="-0.0208" y="1" relative="1" as="geometry">
            <mxPoint as="offset" />
          </mxGeometry>
        </mxCell>
        <mxCell id="Jt-7ObPEiLhGfgnPSq5N-76" value="TX2" style="rounded=0;whiteSpace=wrap;html=1;" vertex="1" parent="1">
          <mxGeometry x="669" y="522" width="41" height="29" as="geometry" />
        </mxCell>
        <mxCell id="Jt-7ObPEiLhGfgnPSq5N-77" value="RX2" style="rounded=0;whiteSpace=wrap;html=1;" vertex="1" parent="1">
          <mxGeometry x="669" y="550.5" width="41" height="29" as="geometry" />
        </mxCell>
        <mxCell id="Jt-7ObPEiLhGfgnPSq5N-78" value="" style="rounded=0;whiteSpace=wrap;html=1;fillColor=none;dashed=1;" vertex="1" parent="1">
          <mxGeometry x="720" y="521" width="120" height="80" as="geometry" />
        </mxCell>
        <mxCell id="Jt-7ObPEiLhGfgnPSq5N-79" value="UART" style="text;html=1;align=center;verticalAlign=middle;whiteSpace=wrap;rounded=0;" vertex="1" parent="1">
          <mxGeometry x="780" y="571" width="60" height="30" as="geometry" />
        </mxCell>
        <mxCell id="Jt-7ObPEiLhGfgnPSq5N-80" value="" style="endArrow=classic;html=1;rounded=0;exitX=0.365;exitY=1.004;exitDx=0;exitDy=0;exitPerimeter=0;strokeColor=#FF3333;" edge="1" parent="1">
          <mxGeometry width="50" height="50" relative="1" as="geometry">
            <mxPoint x="1779.9999999999998" y="1315" as="sourcePoint" />
            <mxPoint x="1779.55" y="1399.44" as="targetPoint" />
          </mxGeometry>
        </mxCell>
        <mxCell id="Jt-7ObPEiLhGfgnPSq5N-85" value="TXB" style="edgeLabel;html=1;align=center;verticalAlign=middle;resizable=0;points=[];" vertex="1" connectable="0" parent="Jt-7ObPEiLhGfgnPSq5N-80">
          <mxGeometry x="0.3687" relative="1" as="geometry">
            <mxPoint as="offset" />
          </mxGeometry>
        </mxCell>
        <mxCell id="Jt-7ObPEiLhGfgnPSq5N-81" value="" style="endArrow=classic;html=1;rounded=0;entryX=0.424;entryY=1.003;entryDx=0;entryDy=0;entryPerimeter=0;strokeColor=#FF3333;" edge="1" parent="1">
          <mxGeometry width="50" height="50" relative="1" as="geometry">
            <mxPoint x="1760.08" y="1399.58" as="sourcePoint" />
            <mxPoint x="1760" y="1315" as="targetPoint" />
            <Array as="points">
              <mxPoint x="1760.08" y="1349.58" />
            </Array>
          </mxGeometry>
        </mxCell>
        <mxCell id="Jt-7ObPEiLhGfgnPSq5N-84" value="RXB" style="edgeLabel;html=1;align=center;verticalAlign=middle;resizable=0;points=[];" vertex="1" connectable="0" parent="Jt-7ObPEiLhGfgnPSq5N-81">
          <mxGeometry x="0.1461" y="1" relative="1" as="geometry">
            <mxPoint as="offset" />
          </mxGeometry>
        </mxCell>
        <mxCell id="Jt-7ObPEiLhGfgnPSq5N-82" value="" style="endArrow=classic;html=1;rounded=0;exitX=0.365;exitY=1.004;exitDx=0;exitDy=0;exitPerimeter=0;strokeColor=#FF3333;" edge="1" parent="1">
          <mxGeometry width="50" height="50" relative="1" as="geometry">
            <mxPoint x="1819.92" y="1315" as="sourcePoint" />
            <mxPoint x="1819.92" y="1399" as="targetPoint" />
          </mxGeometry>
        </mxCell>
        <mxCell id="Jt-7ObPEiLhGfgnPSq5N-87" value="RTS" style="edgeLabel;html=1;align=center;verticalAlign=middle;resizable=0;points=[];" vertex="1" connectable="0" parent="Jt-7ObPEiLhGfgnPSq5N-82">
          <mxGeometry x="0.2519" relative="1" as="geometry">
            <mxPoint y="4" as="offset" />
          </mxGeometry>
        </mxCell>
        <mxCell id="Jt-7ObPEiLhGfgnPSq5N-83" value="" style="endArrow=classic;html=1;rounded=0;entryX=0.424;entryY=1.003;entryDx=0;entryDy=0;entryPerimeter=0;strokeColor=#FF3333;" edge="1" parent="1">
          <mxGeometry width="50" height="50" relative="1" as="geometry">
            <mxPoint x="1800" y="1400" as="sourcePoint" />
            <mxPoint x="1800" y="1315" as="targetPoint" />
          </mxGeometry>
        </mxCell>
        <mxCell id="Jt-7ObPEiLhGfgnPSq5N-86" value="CTS" style="edgeLabel;html=1;align=center;verticalAlign=middle;resizable=0;points=[];" vertex="1" connectable="0" parent="Jt-7ObPEiLhGfgnPSq5N-83">
          <mxGeometry x="0.1543" relative="1" as="geometry">
            <mxPoint as="offset" />
          </mxGeometry>
        </mxCell>
        <mxCell id="Jt-7ObPEiLhGfgnPSq5N-88" value="" style="rounded=0;whiteSpace=wrap;html=1;fillColor=none;dashed=1;" vertex="1" parent="1">
          <mxGeometry x="1740" y="1330" width="170" height="80" as="geometry" />
        </mxCell>
        <mxCell id="Jt-7ObPEiLhGfgnPSq5N-89" value="BLE" style="text;html=1;align=center;verticalAlign=middle;whiteSpace=wrap;rounded=0;" vertex="1" parent="1">
          <mxGeometry x="1850" y="1380" width="70" height="30" as="geometry" />
        </mxCell>
        <mxCell id="Jt-7ObPEiLhGfgnPSq5N-90" value="" style="endArrow=classic;html=1;rounded=0;strokeColor=#FF3333;entryX=1.005;entryY=0.521;entryDx=0;entryDy=0;entryPerimeter=0;" edge="1" parent="1" target="rCXYzEkiWeuKtUZMqGnk-3">
          <mxGeometry width="50" height="50" relative="1" as="geometry">
            <mxPoint x="800" y="380" as="sourcePoint" />
            <mxPoint x="809.55" y="449.44000000000005" as="targetPoint" />
          </mxGeometry>
        </mxCell>
        <mxCell id="Jt-7ObPEiLhGfgnPSq5N-91" value="TXB" style="edgeLabel;html=1;align=center;verticalAlign=middle;resizable=0;points=[];" vertex="1" connectable="0" parent="Jt-7ObPEiLhGfgnPSq5N-90">
          <mxGeometry x="0.3687" relative="1" as="geometry">
            <mxPoint as="offset" />
          </mxGeometry>
        </mxCell>
        <mxCell id="Jt-7ObPEiLhGfgnPSq5N-92" value="" style="endArrow=classic;html=1;rounded=0;strokeColor=#FF3333;exitX=1.003;exitY=0.48;exitDx=0;exitDy=0;exitPerimeter=0;" edge="1" parent="1" source="rCXYzEkiWeuKtUZMqGnk-3">
          <mxGeometry width="50" height="50" relative="1" as="geometry">
            <mxPoint x="790.0799999999999" y="449.5799999999999" as="sourcePoint" />
            <mxPoint x="800" y="360" as="targetPoint" />
            <Array as="points">
              <mxPoint x="770" y="360" />
            </Array>
          </mxGeometry>
        </mxCell>
        <mxCell id="Jt-7ObPEiLhGfgnPSq5N-93" value="RXB" style="edgeLabel;html=1;align=center;verticalAlign=middle;resizable=0;points=[];" vertex="1" connectable="0" parent="Jt-7ObPEiLhGfgnPSq5N-92">
          <mxGeometry x="0.1461" y="1" relative="1" as="geometry">
            <mxPoint as="offset" />
          </mxGeometry>
        </mxCell>
        <mxCell id="Jt-7ObPEiLhGfgnPSq5N-94" value="" style="endArrow=classic;html=1;rounded=0;strokeColor=#FF3333;entryX=1;entryY=0.604;entryDx=0;entryDy=0;entryPerimeter=0;" edge="1" parent="1" target="rCXYzEkiWeuKtUZMqGnk-3">
          <mxGeometry width="50" height="50" relative="1" as="geometry">
            <mxPoint x="800" y="420" as="sourcePoint" />
            <mxPoint x="820.0000000000001" y="444" as="targetPoint" />
          </mxGeometry>
        </mxCell>
        <mxCell id="Jt-7ObPEiLhGfgnPSq5N-95" value="RTS" style="edgeLabel;html=1;align=center;verticalAlign=middle;resizable=0;points=[];" vertex="1" connectable="0" parent="Jt-7ObPEiLhGfgnPSq5N-94">
          <mxGeometry x="0.2519" relative="1" as="geometry">
            <mxPoint y="4" as="offset" />
          </mxGeometry>
        </mxCell>
        <mxCell id="Jt-7ObPEiLhGfgnPSq5N-96" value="" style="endArrow=classic;html=1;rounded=0;strokeColor=#FF3333;exitX=1.005;exitY=0.562;exitDx=0;exitDy=0;exitPerimeter=0;" edge="1" parent="1" source="rCXYzEkiWeuKtUZMqGnk-3">
          <mxGeometry width="50" height="50" relative="1" as="geometry">
            <mxPoint x="729.5699999999999" y="475" as="sourcePoint" />
            <mxPoint x="800" y="400" as="targetPoint" />
          </mxGeometry>
        </mxCell>
        <mxCell id="Jt-7ObPEiLhGfgnPSq5N-97" value="CTS" style="edgeLabel;html=1;align=center;verticalAlign=middle;resizable=0;points=[];" vertex="1" connectable="0" parent="Jt-7ObPEiLhGfgnPSq5N-96">
          <mxGeometry x="0.1543" relative="1" as="geometry">
            <mxPoint as="offset" />
          </mxGeometry>
        </mxCell>
        <mxCell id="Jt-7ObPEiLhGfgnPSq5N-98" value="" style="rounded=0;whiteSpace=wrap;html=1;fillColor=none;dashed=1;" vertex="1" parent="1">
          <mxGeometry x="730" y="350" width="170" height="90" as="geometry" />
        </mxCell>
        <mxCell id="Jt-7ObPEiLhGfgnPSq5N-99" value="BLE" style="text;html=1;align=center;verticalAlign=middle;whiteSpace=wrap;rounded=0;" vertex="1" parent="1">
          <mxGeometry x="850" y="419" width="70" height="30" as="geometry" />
        </mxCell>
        <mxCell id="Jt-7ObPEiLhGfgnPSq5N-100" value="" style="rounded=0;whiteSpace=wrap;html=1;fillColor=none;dashed=1;" vertex="1" parent="1">
          <mxGeometry x="1760" y="2073" width="120" height="127" as="geometry" />
        </mxCell>
        <mxCell id="Jt-7ObPEiLhGfgnPSq5N-101" value="&lt;font style=&quot;font-size: 10px;&quot;&gt;SPI&lt;/font&gt;" style="text;html=1;align=center;verticalAlign=middle;whiteSpace=wrap;rounded=0;" vertex="1" parent="1">
          <mxGeometry x="1840" y="2180" width="40" height="20" as="geometry" />
        </mxCell>
        <mxCell id="Jt-7ObPEiLhGfgnPSq5N-102" value="" style="rounded=0;whiteSpace=wrap;html=1;fillColor=none;dashed=1;" vertex="1" parent="1">
          <mxGeometry x="651" y="1930" width="179" height="177.39" as="geometry" />
        </mxCell>
        <mxCell id="Jt-7ObPEiLhGfgnPSq5N-103" value="&lt;font style=&quot;font-size: 10px;&quot;&gt;I2C&lt;/font&gt;" style="text;html=1;align=center;verticalAlign=middle;whiteSpace=wrap;rounded=0;" vertex="1" parent="1">
          <mxGeometry x="780" y="1930" width="40" height="40" as="geometry" />
        </mxCell>
        <mxCell id="Jt-7ObPEiLhGfgnPSq5N-106" value="" style="endArrow=classic;startArrow=classic;html=1;rounded=0;strokeColor=#000000;dashed=1;" edge="1" parent="1">
          <mxGeometry width="50" height="50" relative="1" as="geometry">
            <mxPoint x="1875" y="2000" as="sourcePoint" />
            <mxPoint x="1965" y="2000" as="targetPoint" />
          </mxGeometry>
        </mxCell>
        <mxCell id="Jt-7ObPEiLhGfgnPSq5N-107" value="&lt;span style=&quot;font-size: 16px;&quot;&gt;Vcc&lt;/span&gt;" style="edgeLabel;html=1;align=center;verticalAlign=middle;resizable=0;points=[];" vertex="1" connectable="0" parent="Jt-7ObPEiLhGfgnPSq5N-106">
          <mxGeometry x="0.063" y="1" relative="1" as="geometry">
            <mxPoint x="-1" as="offset" />
          </mxGeometry>
        </mxCell>
        <mxCell id="Jt-7ObPEiLhGfgnPSq5N-108" value="" style="endArrow=classic;startArrow=classic;html=1;rounded=0;strokeColor=#000000;dashed=1;" edge="1" parent="1">
          <mxGeometry width="50" height="50" relative="1" as="geometry">
            <mxPoint x="1875" y="2030" as="sourcePoint" />
            <mxPoint x="1965" y="2030" as="targetPoint" />
          </mxGeometry>
        </mxCell>
        <mxCell id="Jt-7ObPEiLhGfgnPSq5N-109" value="&lt;span style=&quot;font-size: 16px;&quot;&gt;GND&lt;/span&gt;" style="edgeLabel;html=1;align=center;verticalAlign=middle;resizable=0;points=[];" vertex="1" connectable="0" parent="Jt-7ObPEiLhGfgnPSq5N-108">
          <mxGeometry x="0.063" y="1" relative="1" as="geometry">
            <mxPoint x="-1" as="offset" />
          </mxGeometry>
        </mxCell>
        <mxCell id="Jt-7ObPEiLhGfgnPSq5N-110" value="" style="endArrow=classic;startArrow=classic;html=1;rounded=0;strokeColor=#000000;dashed=1;" edge="1" parent="1">
          <mxGeometry width="50" height="50" relative="1" as="geometry">
            <mxPoint x="1970" y="1275" as="sourcePoint" />
            <mxPoint x="2060" y="1275" as="targetPoint" />
          </mxGeometry>
        </mxCell>
        <mxCell id="Jt-7ObPEiLhGfgnPSq5N-111" value="&lt;span style=&quot;font-size: 16px;&quot;&gt;GND&lt;/span&gt;" style="edgeLabel;html=1;align=center;verticalAlign=middle;resizable=0;points=[];" vertex="1" connectable="0" parent="Jt-7ObPEiLhGfgnPSq5N-110">
          <mxGeometry x="0.063" y="1" relative="1" as="geometry">
            <mxPoint x="-1" as="offset" />
          </mxGeometry>
        </mxCell>
        <mxCell id="Jt-7ObPEiLhGfgnPSq5N-112" value="" style="endArrow=classic;startArrow=classic;html=1;rounded=0;strokeColor=#000000;dashed=1;" edge="1" parent="1">
          <mxGeometry width="50" height="50" relative="1" as="geometry">
            <mxPoint x="1970" y="1220" as="sourcePoint" />
            <mxPoint x="2060" y="1220" as="targetPoint" />
          </mxGeometry>
        </mxCell>
        <mxCell id="Jt-7ObPEiLhGfgnPSq5N-113" value="&lt;span style=&quot;font-size: 16px;&quot;&gt;Vcc&lt;/span&gt;" style="edgeLabel;html=1;align=center;verticalAlign=middle;resizable=0;points=[];" vertex="1" connectable="0" parent="Jt-7ObPEiLhGfgnPSq5N-112">
          <mxGeometry x="0.063" y="1" relative="1" as="geometry">
            <mxPoint x="-1" as="offset" />
          </mxGeometry>
        </mxCell>
        <mxCell id="4YO8NwZqR4kN8iDKsevn-1" value="&lt;font style=&quot;font-size: 10px;&quot;&gt;Vers FP1&lt;/font&gt;" style="text;html=1;align=center;verticalAlign=middle;whiteSpace=wrap;rounded=0;" vertex="1" parent="1">
          <mxGeometry x="1590" y="150" width="60" height="30" as="geometry" />
        </mxCell>
        <mxCell id="yF8Ua1C4gH5tyNtYOThP-1" value="" style="endArrow=classic;html=1;rounded=0;exitX=1.002;exitY=0.124;exitDx=0;exitDy=0;exitPerimeter=0;entryX=0.5;entryY=0.394;entryDx=0;entryDy=0;entryPerimeter=0;strokeColor=#FF3333;" edge="1" parent="1" source="rCXYzEkiWeuKtUZMqGnk-3" target="Jt-7ObPEiLhGfgnPSq5N-21">
          <mxGeometry width="50" height="50" relative="1" as="geometry">
            <mxPoint x="763.0999999999999" y="180.00000000000006" as="sourcePoint" />
            <mxPoint x="790" y="190" as="targetPoint" />
          </mxGeometry>
        </mxCell>
        <mxCell id="yF8Ua1C4gH5tyNtYOThP-2" value="&lt;font style=&quot;font-size: 16px;&quot;&gt;S&lt;/font&gt;SCL" style="edgeLabel;html=1;align=center;verticalAlign=middle;resizable=0;points=[];" vertex="1" connectable="0" parent="yF8Ua1C4gH5tyNtYOThP-1">
          <mxGeometry x="-0.0898" relative="1" as="geometry">
            <mxPoint as="offset" />
          </mxGeometry>
        </mxCell>
        <mxCell id="yF8Ua1C4gH5tyNtYOThP-3" value="" style="endArrow=classic;html=1;rounded=0;entryX=1.01;entryY=0.541;entryDx=0;entryDy=0;entryPerimeter=0;strokeColor=#FF3333;" edge="1" parent="1" target="kBfQ11mAtG_p4Qt65heE-14">
          <mxGeometry width="50" height="50" relative="1" as="geometry">
            <mxPoint x="720" y="2030" as="sourcePoint" />
            <mxPoint x="560" y="2020" as="targetPoint" />
          </mxGeometry>
        </mxCell>
        <mxCell id="yF8Ua1C4gH5tyNtYOThP-4" value="&lt;font style=&quot;font-size: 16px;&quot;&gt;S&lt;/font&gt;SCL" style="edgeLabel;html=1;align=center;verticalAlign=middle;resizable=0;points=[];" vertex="1" connectable="0" parent="yF8Ua1C4gH5tyNtYOThP-3">
          <mxGeometry x="0.0703" relative="1" as="geometry">
            <mxPoint as="offset" />
          </mxGeometry>
        </mxCell>
      </root>
    </mxGraphModel>
  </diagram>
</mxfile>
